<svg width="1920" height="952" viewBox="0 0 1920 952" fill="none" xmlns="http://www.w3.org/2000/svg">
<g clip-path="url(#clip0_3514_10458)">
<rect width="1920" height="952" fill="white"/>
<path d="M95 64H388L428 140L388 216H95L135 140L95 64Z" fill="#161616"/>
<path d="M164.136 122H160.968V105.248H168.504C171.6 105.248 173.472 107.336 173.472 110.432C173.472 113.552 171.6 115.616 168.504 115.616H164.136V122ZM164.136 108.008V112.88H168.216C169.44 112.88 170.184 112.208 170.184 110.984V109.88C170.184 108.656 169.44 108.008 168.216 108.008H164.136ZM176.871 122V104.24H179.943V111.56H180.063C180.567 110.216 181.623 109.184 183.567 109.184C186.135 109.184 187.575 110.96 187.575 114.08V122H184.503V114.392C184.503 112.616 183.903 111.704 182.439 111.704C181.167 111.704 179.943 112.376 179.943 113.72V122H176.871ZM194.796 122.288C192.252 122.288 190.812 120.824 190.812 118.592C190.812 116.024 192.756 114.752 196.164 114.752H198.3V113.84C198.3 112.448 197.604 111.632 195.972 111.632C194.532 111.632 193.716 112.352 193.116 113.216L191.292 111.584C192.204 110.144 193.668 109.184 196.188 109.184C199.572 109.184 201.372 110.792 201.372 113.648V119.552H202.62V122H200.916C199.596 122 198.78 121.136 198.588 119.84H198.444C198.036 121.448 196.668 122.288 194.796 122.288ZM195.828 120.056C197.196 120.056 198.3 119.432 198.3 118.256V116.6H196.332C194.724 116.6 193.932 117.152 193.932 118.136V118.544C193.932 119.552 194.628 120.056 195.828 120.056ZM209.931 122.288C207.555 122.288 205.995 121.424 204.747 119.984L206.619 118.16C207.531 119.216 208.635 119.864 210.051 119.864C211.515 119.864 212.139 119.312 212.139 118.424C212.139 117.704 211.707 117.248 210.603 117.104L209.355 116.936C206.667 116.6 205.179 115.424 205.179 113.144C205.179 110.72 207.075 109.184 209.931 109.184C212.379 109.184 213.627 109.904 214.827 111.152L213.027 112.952C212.307 112.184 211.251 111.608 210.027 111.608C208.707 111.608 208.131 112.136 208.131 112.904C208.131 113.744 208.587 114.128 209.763 114.32L211.035 114.488C213.771 114.872 215.091 116.096 215.091 118.184C215.091 120.608 213.051 122.288 209.931 122.288ZM223.587 122.288C219.891 122.288 217.683 119.72 217.683 115.712C217.683 111.752 219.819 109.184 223.491 109.184C227.403 109.184 229.203 112.064 229.203 115.496V116.504H220.875V116.816C220.875 118.616 221.907 119.84 223.923 119.84C225.435 119.84 226.347 119.12 227.115 118.136L228.771 119.984C227.739 121.4 225.915 122.288 223.587 122.288ZM223.539 111.488C221.931 111.488 220.875 112.688 220.875 114.416V114.608H226.011V114.392C226.011 112.664 225.123 111.488 223.539 111.488ZM250.97 122H239.426V119.432H244.034V107.528H243.818L240.17 111.848L238.202 110.192L242.354 105.248H247.13V119.432H250.97V122Z" fill="white"/>
<path d="M165.86 155.24C162.3 155.24 160.12 152.68 160.12 148.02C160.12 143.36 162.3 140.8 165.86 140.8C168.22 140.8 169.84 141.9 170.74 143.9L169.14 144.82C168.62 143.44 167.54 142.54 165.86 142.54C163.58 142.54 162.2 144.24 162.2 146.96V149.08C162.2 151.8 163.58 153.5 165.86 153.5C167.58 153.5 168.74 152.52 169.26 151.08L170.82 152.02C169.92 154.02 168.22 155.24 165.86 155.24ZM177.759 155.24C174.939 155.24 173.039 153.12 173.039 149.82C173.039 146.52 174.939 144.4 177.759 144.4C180.579 144.4 182.479 146.52 182.479 149.82C182.479 153.12 180.579 155.24 177.759 155.24ZM177.759 153.64C179.379 153.64 180.499 152.62 180.499 150.6V149.04C180.499 147.02 179.379 146 177.759 146C176.139 146 175.019 147.02 175.019 149.04V150.6C175.019 152.62 176.139 153.64 177.759 153.64ZM187.47 155H185.61V144.64H187.47V146.34H187.57C188.05 145.2 188.93 144.4 190.49 144.4C192.61 144.4 193.91 145.86 193.91 148.38V155H192.05V148.66C192.05 146.92 191.33 146.02 189.87 146.02C188.65 146.02 187.47 146.64 187.47 147.9V155ZM199.534 155H197.674V144.64H199.534V146.34H199.634C200.114 145.2 200.994 144.4 202.554 144.4C204.674 144.4 205.974 145.86 205.974 148.38V155H204.114V148.66C204.114 146.92 203.394 146.02 201.934 146.02C200.714 146.02 199.534 146.64 199.534 147.9V155ZM213.699 155.24C210.819 155.24 208.999 153.1 208.999 149.82C208.999 146.54 210.819 144.4 213.699 144.4C216.599 144.4 218.239 146.6 218.239 149.5V150.28H210.939V150.7C210.939 152.42 211.999 153.66 213.859 153.66C215.159 153.66 216.099 153.04 216.659 151.98L217.859 153C217.139 154.34 215.639 155.24 213.699 155.24ZM213.699 145.9C212.079 145.9 210.939 147.14 210.939 148.84V148.98H216.259V148.78C216.259 147.06 215.259 145.9 213.699 145.9ZM225.294 155.24C222.334 155.24 220.634 153.14 220.634 149.82C220.634 146.5 222.334 144.4 225.294 144.4C227.334 144.4 228.614 145.4 229.214 146.88L227.674 147.64C227.334 146.62 226.494 146 225.294 146C223.514 146 222.614 147.22 222.614 148.92V150.72C222.614 152.42 223.514 153.64 225.294 153.64C226.554 153.64 227.414 153 227.934 151.88L229.294 152.72C228.634 154.28 227.274 155.24 225.294 155.24ZM236.572 155H234.612C233.332 155 232.652 154.24 232.652 153.04V146.22H230.992V144.64H231.912C232.612 144.64 232.832 144.38 232.832 143.68V141.78H234.512V144.64H236.732V146.22H234.512V153.42H236.572V155ZM249.067 155.24C246.107 155.24 244.407 153.14 244.407 149.82C244.407 146.5 246.107 144.4 249.067 144.4C251.107 144.4 252.387 145.4 252.987 146.88L251.447 147.64C251.107 146.62 250.267 146 249.067 146C247.287 146 246.387 147.22 246.387 148.92V150.72C246.387 152.42 247.287 153.64 249.067 153.64C250.327 153.64 251.187 153 251.707 151.88L253.067 152.72C252.407 154.28 251.047 155.24 249.067 155.24ZM259.185 155H257.785C256.505 155 255.845 154.24 255.845 153.1V140.2H257.705V153.42H259.185V155ZM262.951 142.48C262.171 142.48 261.831 142.06 261.831 141.46V141.18C261.831 140.58 262.171 140.16 262.951 140.16C263.731 140.16 264.071 140.58 264.071 141.18V141.46C264.071 142.06 263.731 142.48 262.951 142.48ZM262.011 155V144.64H263.871V155H262.011ZM271.708 155.24C268.828 155.24 267.008 153.1 267.008 149.82C267.008 146.54 268.828 144.4 271.708 144.4C274.608 144.4 276.248 146.6 276.248 149.5V150.28H268.948V150.7C268.948 152.42 270.008 153.66 271.868 153.66C273.168 153.66 274.108 153.04 274.668 151.98L275.868 153C275.148 154.34 273.648 155.24 271.708 155.24ZM271.708 145.9C270.088 145.9 268.948 147.14 268.948 148.84V148.98H274.268V148.78C274.268 147.06 273.268 145.9 271.708 145.9ZM281.243 155H279.383V144.64H281.243V146.34H281.343C281.823 145.2 282.703 144.4 284.263 144.4C286.383 144.4 287.683 145.86 287.683 148.38V155H285.823V148.66C285.823 146.92 285.103 146.02 283.643 146.02C282.423 146.02 281.243 146.64 281.243 147.9V155ZM295.948 155H293.988C292.708 155 292.028 154.24 292.028 153.04V146.22H290.368V144.64H291.288C291.988 144.64 292.208 144.38 292.208 143.68V141.78H293.888V144.64H296.108V146.22H293.888V153.42H295.948V155ZM302.376 155.24C300.456 155.24 299.196 154.46 298.236 153.24L299.496 152.16C300.276 153.14 301.236 153.7 302.496 153.7C303.816 153.7 304.536 153.12 304.536 152.16C304.536 151.4 304.136 150.86 302.876 150.68L301.996 150.54C300.016 150.26 298.636 149.44 298.636 147.52C298.636 145.48 300.216 144.4 302.396 144.4C304.156 144.4 305.256 145.02 306.136 146.06L304.956 147.18C304.456 146.52 303.576 145.94 302.336 145.94C301.076 145.94 300.436 146.52 300.436 147.4C300.436 148.32 301.036 148.7 302.236 148.88L303.116 149.02C305.396 149.36 306.336 150.36 306.336 151.96C306.336 153.98 304.816 155.24 302.376 155.24ZM319.428 155H317.468C316.188 155 315.508 154.24 315.508 153.04V146.22H313.848V144.64H314.768C315.468 144.64 315.688 144.38 315.688 143.68V141.78H317.368V144.64H319.588V146.22H317.368V153.42H319.428V155ZM326.578 155.24C323.758 155.24 321.858 153.12 321.858 149.82C321.858 146.52 323.758 144.4 326.578 144.4C329.398 144.4 331.298 146.52 331.298 149.82C331.298 153.12 329.398 155.24 326.578 155.24ZM326.578 153.64C328.198 153.64 329.318 152.62 329.318 150.6V149.04C329.318 147.02 328.198 146 326.578 146C324.958 146 323.838 147.02 323.838 149.04V150.6C323.838 152.62 324.958 153.64 326.578 153.64ZM169.98 177.28V179H159.74V177.26L167.54 166.76H160.14V165.04H169.72V166.78L161.88 177.28H169.98ZM173.119 179V165.04H177.899C181.439 165.04 183.719 167.36 183.719 172.02C183.719 176.68 181.439 179 177.899 179H173.119ZM175.059 177.28H177.899C180.119 177.28 181.639 175.8 181.639 173.14V170.9C181.639 168.24 180.119 166.76 177.899 166.76H175.059V177.28ZM187.234 179V165.04H189.674L193.554 172.38H193.634L197.514 165.04H199.874V179H197.994V167.72H197.894L196.754 170.02L193.554 175.88L190.354 170.02L189.214 167.72H189.114V179H187.234ZM209.231 183V168.64H211.091V170.34H211.171C211.651 169.06 212.731 168.4 214.151 168.4C216.751 168.4 218.311 170.46 218.311 173.82C218.311 177.18 216.751 179.24 214.151 179.24C212.731 179.24 211.651 178.58 211.171 177.3H211.091V183H209.231ZM213.611 177.62C215.271 177.62 216.331 176.44 216.331 174.7V172.94C216.331 171.2 215.271 170.02 213.611 170.02C212.211 170.02 211.091 170.82 211.091 171.92V175.72C211.091 176.82 212.211 177.62 213.611 177.62ZM223.391 179H221.531V168.64H223.391V170.62H223.491C223.831 169.6 224.751 168.64 226.411 168.64H227.031V170.5H226.111C224.391 170.5 223.391 171.18 223.391 172.2V179ZM233.513 179.24C230.693 179.24 228.793 177.12 228.793 173.82C228.793 170.52 230.693 168.4 233.513 168.4C236.333 168.4 238.233 170.52 238.233 173.82C238.233 177.12 236.333 179.24 233.513 179.24ZM233.513 177.64C235.133 177.64 236.253 176.62 236.253 174.6V173.04C236.253 171.02 235.133 170 233.513 170C231.893 170 230.773 171.02 230.773 173.04V174.6C230.773 176.62 231.893 177.64 233.513 177.64ZM239.89 179L243.65 173.78L240.03 168.64H242.19L244.69 172.38H244.75L247.31 168.64H249.35L245.73 173.7L249.41 179H247.25L244.69 175.08H244.63L241.93 179H239.89ZM253.001 166.48C252.221 166.48 251.881 166.06 251.881 165.46V165.18C251.881 164.58 252.221 164.16 253.001 164.16C253.781 164.16 254.121 164.58 254.121 165.18V165.46C254.121 166.06 253.781 166.48 253.001 166.48ZM252.061 179V168.64H253.921V179H252.061ZM261.758 179.24C258.878 179.24 257.058 177.1 257.058 173.82C257.058 170.54 258.878 168.4 261.758 168.4C264.658 168.4 266.298 170.6 266.298 173.5V174.28H258.998V174.7C258.998 176.42 260.058 177.66 261.918 177.66C263.218 177.66 264.158 177.04 264.718 175.98L265.918 177C265.198 178.34 263.698 179.24 261.758 179.24ZM261.758 169.9C260.138 169.9 258.998 171.14 258.998 172.84V172.98H264.318V172.78C264.318 171.06 263.318 169.9 261.758 169.9ZM272.613 179.24C270.693 179.24 269.433 178.46 268.473 177.24L269.733 176.16C270.513 177.14 271.473 177.7 272.733 177.7C274.053 177.7 274.773 177.12 274.773 176.16C274.773 175.4 274.373 174.86 273.113 174.68L272.233 174.54C270.253 174.26 268.873 173.44 268.873 171.52C268.873 169.48 270.453 168.4 272.633 168.4C274.393 168.4 275.493 169.02 276.373 170.06L275.193 171.18C274.693 170.52 273.813 169.94 272.573 169.94C271.313 169.94 270.673 170.52 270.673 171.4C270.673 172.32 271.273 172.7 272.473 172.88L273.353 173.02C275.633 173.36 276.573 174.36 276.573 175.96C276.573 177.98 275.053 179.24 272.613 179.24Z" fill="white"/>
<path d="M444 64H737L777 140L737 216H444L484 140L444 64Z" fill="#161616"/>
<path d="M513.136 122H509.968V105.248H517.504C520.6 105.248 522.472 107.336 522.472 110.432C522.472 113.552 520.6 115.616 517.504 115.616H513.136V122ZM513.136 108.008V112.88H517.216C518.44 112.88 519.184 112.208 519.184 110.984V109.88C519.184 108.656 518.44 108.008 517.216 108.008H513.136ZM525.871 122V104.24H528.943V111.56H529.063C529.567 110.216 530.623 109.184 532.567 109.184C535.135 109.184 536.575 110.96 536.575 114.08V122H533.503V114.392C533.503 112.616 532.903 111.704 531.439 111.704C530.167 111.704 528.943 112.376 528.943 113.72V122H525.871ZM543.796 122.288C541.252 122.288 539.812 120.824 539.812 118.592C539.812 116.024 541.756 114.752 545.164 114.752H547.3V113.84C547.3 112.448 546.604 111.632 544.972 111.632C543.532 111.632 542.716 112.352 542.116 113.216L540.292 111.584C541.204 110.144 542.668 109.184 545.188 109.184C548.572 109.184 550.372 110.792 550.372 113.648V119.552H551.62V122H549.916C548.596 122 547.78 121.136 547.588 119.84H547.444C547.036 121.448 545.668 122.288 543.796 122.288ZM544.828 120.056C546.196 120.056 547.3 119.432 547.3 118.256V116.6H545.332C543.724 116.6 542.932 117.152 542.932 118.136V118.544C542.932 119.552 543.628 120.056 544.828 120.056ZM558.931 122.288C556.555 122.288 554.995 121.424 553.747 119.984L555.619 118.16C556.531 119.216 557.635 119.864 559.051 119.864C560.515 119.864 561.139 119.312 561.139 118.424C561.139 117.704 560.707 117.248 559.603 117.104L558.355 116.936C555.667 116.6 554.179 115.424 554.179 113.144C554.179 110.72 556.075 109.184 558.931 109.184C561.379 109.184 562.627 109.904 563.827 111.152L562.027 112.952C561.307 112.184 560.251 111.608 559.027 111.608C557.707 111.608 557.131 112.136 557.131 112.904C557.131 113.744 557.587 114.128 558.763 114.32L560.035 114.488C562.771 114.872 564.091 116.096 564.091 118.184C564.091 120.608 562.051 122.288 558.931 122.288ZM572.587 122.288C568.891 122.288 566.683 119.72 566.683 115.712C566.683 111.752 568.819 109.184 572.491 109.184C576.403 109.184 578.203 112.064 578.203 115.496V116.504H569.875V116.816C569.875 118.616 570.907 119.84 572.923 119.84C574.435 119.84 575.347 119.12 576.115 118.136L577.771 119.984C576.739 121.4 574.915 122.288 572.587 122.288ZM572.539 111.488C570.931 111.488 569.875 112.688 569.875 114.416V114.608H575.011V114.392C575.011 112.664 574.123 111.488 572.539 111.488ZM599.346 119.336V122H587.73V119.072L592.986 114.464C594.762 112.904 595.578 111.752 595.578 110.288V109.976C595.578 108.512 594.474 107.696 593.106 107.696C591.378 107.696 590.562 108.824 590.178 110.192L587.442 109.136C588.162 106.904 589.962 104.96 593.37 104.96C596.898 104.96 598.914 107.072 598.914 109.952C598.914 112.736 597.018 114.512 594.69 116.432L591.162 119.336H599.346Z" fill="white"/>
<path d="M509.8 155V141.04H512.24L516.12 148.38H516.2L520.08 141.04H522.44V155H520.56V143.72H520.46L519.32 146.02L516.12 151.88L512.92 146.02L511.78 143.72H511.68V155H509.8ZM527.41 142.48C526.63 142.48 526.29 142.06 526.29 141.46V141.18C526.29 140.58 526.63 140.16 527.41 140.16C528.19 140.16 528.53 140.58 528.53 141.18V141.46C528.53 142.06 528.19 142.48 527.41 142.48ZM526.47 155V144.64H528.33V155H526.47ZM541.107 156.06C541.107 158.2 539.467 159.24 535.967 159.24C532.667 159.24 531.347 158.32 531.347 156.72C531.347 155.6 531.987 154.98 533.047 154.72V154.5C532.387 154.24 532.027 153.72 532.027 152.98C532.027 151.94 532.807 151.42 533.827 151.18V151.1C532.607 150.52 531.907 149.38 531.907 147.96C531.907 145.86 533.427 144.4 535.907 144.4C536.627 144.4 537.267 144.54 537.827 144.76V144.54C537.827 143.68 538.207 143.12 539.087 143.12H540.667V144.68H538.627V145.24C539.467 145.86 539.927 146.82 539.927 147.96C539.927 150.06 538.407 151.5 535.907 151.5C535.507 151.5 535.087 151.46 534.747 151.38C534.147 151.56 533.567 151.9 533.567 152.48C533.567 153.08 534.147 153.26 535.087 153.26H537.447C540.007 153.26 541.107 154.32 541.107 156.06ZM539.367 156.24C539.367 155.46 538.847 154.96 537.327 154.96H533.847C533.267 155.26 533.007 155.7 533.007 156.28C533.007 157.14 533.627 157.82 535.247 157.82H536.647C538.407 157.82 539.367 157.3 539.367 156.24ZM535.927 150.1C537.247 150.1 538.067 149.48 538.067 148.22V147.7C538.067 146.44 537.247 145.82 535.927 145.82C534.607 145.82 533.787 146.44 533.787 147.7V148.22C533.787 149.48 534.607 150.1 535.927 150.1ZM545.331 155H543.471V144.64H545.331V146.62H545.431C545.771 145.6 546.691 144.64 548.351 144.64H548.971V146.5H548.051C546.331 146.5 545.331 147.18 545.331 148.2V155ZM560.054 155H558.994C557.854 155 557.314 154.28 557.174 153.28H557.074C556.654 154.56 555.554 155.24 554.074 155.24C551.914 155.24 550.654 154.04 550.654 152.14C550.654 150.14 552.114 149.06 555.074 149.06H557.034V148.12C557.034 146.74 556.294 145.96 554.734 145.96C553.514 145.96 552.734 146.56 552.194 147.44L551.074 146.42C551.694 145.3 552.914 144.4 554.834 144.4C557.414 144.4 558.894 145.72 558.894 147.96V153.42H560.054V155ZM554.494 153.74C555.954 153.74 557.034 153 557.034 151.96V150.36H555.054C553.354 150.36 552.594 150.88 552.594 151.84V152.24C552.594 153.2 553.334 153.74 554.494 153.74ZM567.355 155H565.395C564.115 155 563.435 154.24 563.435 153.04V146.22H561.775V144.64H562.695C563.395 144.64 563.615 144.38 563.615 143.68V141.78H565.295V144.64H567.515V146.22H565.295V153.42H567.355V155ZM574.485 155.24C571.605 155.24 569.785 153.1 569.785 149.82C569.785 146.54 571.605 144.4 574.485 144.4C577.385 144.4 579.025 146.6 579.025 149.5V150.28H571.725V150.7C571.725 152.42 572.785 153.66 574.645 153.66C575.945 153.66 576.885 153.04 577.445 151.98L578.645 153C577.925 154.34 576.425 155.24 574.485 155.24ZM574.485 145.9C572.865 145.9 571.725 147.14 571.725 148.84V148.98H577.045V148.78C577.045 147.06 576.045 145.9 574.485 145.9ZM596.087 155H595.027C593.887 155 593.347 154.28 593.207 153.28H593.107C592.687 154.56 591.587 155.24 590.107 155.24C587.947 155.24 586.687 154.04 586.687 152.14C586.687 150.14 588.147 149.06 591.107 149.06H593.067V148.12C593.067 146.74 592.327 145.96 590.767 145.96C589.547 145.96 588.767 146.56 588.227 147.44L587.107 146.42C587.727 145.3 588.947 144.4 590.867 144.4C593.447 144.4 594.927 145.72 594.927 147.96V153.42H596.087V155ZM590.527 153.74C591.987 153.74 593.067 153 593.067 151.96V150.36H591.087C589.387 150.36 588.627 150.88 588.627 151.84V152.24C588.627 153.2 589.367 153.74 590.527 153.74ZM600.767 155H598.907V144.64H600.767V146.34H600.867C601.347 145.2 602.227 144.4 603.787 144.4C605.907 144.4 607.207 145.86 607.207 148.38V155H605.347V148.66C605.347 146.92 604.627 146.02 603.167 146.02C601.947 146.02 600.767 146.64 600.767 147.9V155ZM617.532 155V153.3H617.452C616.972 154.58 615.892 155.24 614.472 155.24C611.872 155.24 610.312 153.18 610.312 149.82C610.312 146.46 611.872 144.4 614.472 144.4C615.892 144.4 616.972 145.06 617.452 146.34H617.532V140.2H619.392V155H617.532ZM615.012 153.62C616.412 153.62 617.532 152.82 617.532 151.72V147.92C617.532 146.82 616.412 146.02 615.012 146.02C613.352 146.02 612.292 147.2 612.292 148.94V150.7C612.292 152.44 613.352 153.62 615.012 153.62ZM633.038 155H630.858L627.278 144.64H629.138L630.838 149.6L631.918 153.18H632.038L633.138 149.6L634.858 144.64H636.638L633.038 155ZM647.622 155H646.562C645.422 155 644.882 154.28 644.742 153.28H644.642C644.222 154.56 643.122 155.24 641.642 155.24C639.482 155.24 638.222 154.04 638.222 152.14C638.222 150.14 639.682 149.06 642.642 149.06H644.602V148.12C644.602 146.74 643.862 145.96 642.302 145.96C641.082 145.96 640.302 146.56 639.762 147.44L638.642 146.42C639.262 145.3 640.482 144.4 642.402 144.4C644.982 144.4 646.462 145.72 646.462 147.96V153.42H647.622V155ZM642.062 153.74C643.522 153.74 644.602 153 644.602 151.96V150.36H642.622C640.922 150.36 640.162 150.88 640.162 151.84V152.24C640.162 153.2 640.902 153.74 642.062 153.74ZM653.782 155H652.382C651.102 155 650.442 154.24 650.442 153.1V140.2H652.302V153.42H653.782V155ZM657.549 142.48C656.769 142.48 656.429 142.06 656.429 141.46V141.18C656.429 140.58 656.769 140.16 657.549 140.16C658.329 140.16 658.669 140.58 658.669 141.18V141.46C658.669 142.06 658.329 142.48 657.549 142.48ZM656.609 155V144.64H658.469V155H656.609ZM668.905 155V153.3H668.825C668.345 154.58 667.265 155.24 665.845 155.24C663.245 155.24 661.685 153.18 661.685 149.82C661.685 146.46 663.245 144.4 665.845 144.4C667.265 144.4 668.345 145.06 668.825 146.34H668.905V140.2H670.765V155H668.905ZM666.385 153.62C667.785 153.62 668.905 152.82 668.905 151.72V147.92C668.905 146.82 667.785 146.02 666.385 146.02C664.725 146.02 663.665 147.2 663.665 148.94V150.7C663.665 152.44 664.725 153.62 666.385 153.62ZM683.245 155H682.185C681.045 155 680.505 154.28 680.365 153.28H680.265C679.845 154.56 678.745 155.24 677.265 155.24C675.105 155.24 673.845 154.04 673.845 152.14C673.845 150.14 675.305 149.06 678.265 149.06H680.225V148.12C680.225 146.74 679.485 145.96 677.925 145.96C676.705 145.96 675.925 146.56 675.385 147.44L674.265 146.42C674.885 145.3 676.105 144.4 678.025 144.4C680.605 144.4 682.085 145.72 682.085 147.96V153.42H683.245V155ZM677.685 153.74C679.145 153.74 680.225 153 680.225 151.96V150.36H678.245C676.545 150.36 675.785 150.88 675.785 151.84V152.24C675.785 153.2 676.525 153.74 677.685 153.74ZM690.545 155H688.585C687.305 155 686.625 154.24 686.625 153.04V146.22H684.965V144.64H685.885C686.585 144.64 686.805 144.38 686.805 143.68V141.78H688.485V144.64H690.705V146.22H688.485V153.42H690.545V155ZM697.676 155.24C694.796 155.24 692.976 153.1 692.976 149.82C692.976 146.54 694.796 144.4 697.676 144.4C700.576 144.4 702.216 146.6 702.216 149.5V150.28H694.916V150.7C694.916 152.42 695.976 153.66 697.836 153.66C699.136 153.66 700.076 153.04 700.636 151.98L701.836 153C701.116 154.34 699.616 155.24 697.676 155.24ZM697.676 145.9C696.056 145.9 694.916 147.14 694.916 148.84V148.98H700.236V148.78C700.236 147.06 699.236 145.9 697.676 145.9ZM516.2 179V177.3H516.12C515.64 178.58 514.56 179.24 513.14 179.24C510.54 179.24 508.98 177.18 508.98 173.82C508.98 170.46 510.54 168.4 513.14 168.4C514.56 168.4 515.64 169.06 516.12 170.34H516.2V164.2H518.06V179H516.2ZM513.68 177.62C515.08 177.62 516.2 176.82 516.2 175.72V171.92C516.2 170.82 515.08 170.02 513.68 170.02C512.02 170.02 510.96 171.2 510.96 172.94V174.7C510.96 176.44 512.02 177.62 513.68 177.62ZM530.539 179H529.479C528.339 179 527.799 178.28 527.659 177.28H527.559C527.139 178.56 526.039 179.24 524.559 179.24C522.399 179.24 521.139 178.04 521.139 176.14C521.139 174.14 522.599 173.06 525.559 173.06H527.519V172.12C527.519 170.74 526.779 169.96 525.219 169.96C523.999 169.96 523.219 170.56 522.679 171.44L521.559 170.42C522.179 169.3 523.399 168.4 525.319 168.4C527.899 168.4 529.379 169.72 529.379 171.96V177.42H530.539V179ZM524.979 177.74C526.439 177.74 527.519 177 527.519 175.96V174.36H525.539C523.839 174.36 523.079 174.88 523.079 175.84V176.24C523.079 177.2 523.819 177.74 524.979 177.74ZM537.84 179H535.88C534.6 179 533.92 178.24 533.92 177.04V170.22H532.26V168.64H533.18C533.88 168.64 534.1 168.38 534.1 167.68V165.78H535.78V168.64H538V170.22H535.78V177.42H537.84V179ZM549.688 179H548.628C547.488 179 546.948 178.28 546.808 177.28H546.708C546.288 178.56 545.188 179.24 543.708 179.24C541.548 179.24 540.288 178.04 540.288 176.14C540.288 174.14 541.748 173.06 544.708 173.06H546.668V172.12C546.668 170.74 545.928 169.96 544.368 169.96C543.148 169.96 542.368 170.56 541.828 171.44L540.708 170.42C541.328 169.3 542.548 168.4 544.468 168.4C547.048 168.4 548.528 169.72 548.528 171.96V177.42H549.688V179ZM544.128 177.74C545.588 177.74 546.668 177 546.668 175.96V174.36H544.688C542.988 174.36 542.228 174.88 542.228 175.84V176.24C542.228 177.2 542.968 177.74 544.128 177.74Z" fill="white"/>
<path d="M793 64H1086L1126 140L1086 216H793L833 140L793 64Z" fill="#161616"/>
<path d="M862.136 122H858.968V105.248H866.504C869.6 105.248 871.472 107.336 871.472 110.432C871.472 113.552 869.6 115.616 866.504 115.616H862.136V122ZM862.136 108.008V112.88H866.216C867.44 112.88 868.184 112.208 868.184 110.984V109.88C868.184 108.656 867.44 108.008 866.216 108.008H862.136ZM874.871 122V104.24H877.943V111.56H878.063C878.567 110.216 879.623 109.184 881.567 109.184C884.135 109.184 885.575 110.96 885.575 114.08V122H882.503V114.392C882.503 112.616 881.903 111.704 880.439 111.704C879.167 111.704 877.943 112.376 877.943 113.72V122H874.871ZM892.796 122.288C890.252 122.288 888.812 120.824 888.812 118.592C888.812 116.024 890.756 114.752 894.164 114.752H896.3V113.84C896.3 112.448 895.604 111.632 893.972 111.632C892.532 111.632 891.716 112.352 891.116 113.216L889.292 111.584C890.204 110.144 891.668 109.184 894.188 109.184C897.572 109.184 899.372 110.792 899.372 113.648V119.552H900.62V122H898.916C897.596 122 896.78 121.136 896.588 119.84H896.444C896.036 121.448 894.668 122.288 892.796 122.288ZM893.828 120.056C895.196 120.056 896.3 119.432 896.3 118.256V116.6H894.332C892.724 116.6 891.932 117.152 891.932 118.136V118.544C891.932 119.552 892.628 120.056 893.828 120.056ZM907.931 122.288C905.555 122.288 903.995 121.424 902.747 119.984L904.619 118.16C905.531 119.216 906.635 119.864 908.051 119.864C909.515 119.864 910.139 119.312 910.139 118.424C910.139 117.704 909.707 117.248 908.603 117.104L907.355 116.936C904.667 116.6 903.179 115.424 903.179 113.144C903.179 110.72 905.075 109.184 907.931 109.184C910.379 109.184 911.627 109.904 912.827 111.152L911.027 112.952C910.307 112.184 909.251 111.608 908.027 111.608C906.707 111.608 906.131 112.136 906.131 112.904C906.131 113.744 906.587 114.128 907.763 114.32L909.035 114.488C911.771 114.872 913.091 116.096 913.091 118.184C913.091 120.608 911.051 122.288 907.931 122.288ZM921.587 122.288C917.891 122.288 915.683 119.72 915.683 115.712C915.683 111.752 917.819 109.184 921.491 109.184C925.403 109.184 927.203 112.064 927.203 115.496V116.504H918.875V116.816C918.875 118.616 919.907 119.84 921.923 119.84C923.435 119.84 924.347 119.12 925.115 118.136L926.771 119.984C925.739 121.4 923.915 122.288 921.587 122.288ZM921.539 111.488C919.931 111.488 918.875 112.688 918.875 114.416V114.608H924.011V114.392C924.011 112.664 923.123 111.488 921.539 111.488ZM939.874 112.016H941.53C943.45 112.016 944.338 111.128 944.338 109.928V109.76C944.338 108.392 943.378 107.552 941.866 107.552C940.402 107.552 939.25 108.296 938.434 109.568L936.418 107.744C937.546 106.184 939.13 104.96 941.962 104.96C945.346 104.96 947.65 106.64 947.65 109.328C947.65 111.488 946.186 112.784 944.434 113.144V113.288C946.378 113.648 947.938 114.992 947.938 117.368C947.938 120.32 945.466 122.288 941.77 122.288C938.506 122.288 936.874 120.8 935.818 119.168L938.146 117.392C938.89 118.736 939.898 119.696 941.77 119.696C943.618 119.696 944.65 118.736 944.65 117.176V117.008C944.65 115.472 943.522 114.656 941.53 114.656H939.874V112.016Z" fill="white"/>
<path d="M867.5 155H858.8V141.04H867.5V142.76H860.74V147.08H867V148.8H860.74V153.28H867.5V155ZM872.858 155H870.998V144.64H872.858V146.34H872.958C873.438 145.2 874.318 144.4 875.878 144.4C877.998 144.4 879.298 145.86 879.298 148.38V155H877.438V148.66C877.438 146.92 876.718 146.02 875.258 146.02C874.038 146.02 872.858 146.64 872.858 147.9V155ZM891.663 155H890.603C889.463 155 888.923 154.28 888.783 153.28H888.683C888.263 154.56 887.163 155.24 885.683 155.24C883.523 155.24 882.263 154.04 882.263 152.14C882.263 150.14 883.723 149.06 886.683 149.06H888.643V148.12C888.643 146.74 887.903 145.96 886.343 145.96C885.123 145.96 884.343 146.56 883.803 147.44L882.683 146.42C883.303 145.3 884.523 144.4 886.443 144.4C889.023 144.4 890.503 145.72 890.503 147.96V153.42H891.663V155ZM886.103 153.74C887.563 153.74 888.643 153 888.643 151.96V150.36H886.663C884.963 150.36 884.203 150.88 884.203 151.84V152.24C884.203 153.2 884.943 153.74 886.103 153.74ZM894.483 155V140.2H896.343V146.34H896.423C896.903 145.06 897.983 144.4 899.403 144.4C902.003 144.4 903.563 146.46 903.563 149.82C903.563 153.18 902.003 155.24 899.403 155.24C897.983 155.24 896.903 154.58 896.423 153.3H896.343V155H894.483ZM898.863 153.62C900.523 153.62 901.583 152.44 901.583 150.7V148.94C901.583 147.2 900.523 146.02 898.863 146.02C897.463 146.02 896.343 146.82 896.343 147.92V151.72C896.343 152.82 897.463 153.62 898.863 153.62ZM910.122 155H908.722C907.442 155 906.782 154.24 906.782 153.1V140.2H908.642V153.42H910.122V155ZM916.909 155.24C914.029 155.24 912.209 153.1 912.209 149.82C912.209 146.54 914.029 144.4 916.909 144.4C919.809 144.4 921.449 146.6 921.449 149.5V150.28H914.149V150.7C914.149 152.42 915.209 153.66 917.069 153.66C918.369 153.66 919.309 153.04 919.869 151.98L921.069 153C920.349 154.34 918.849 155.24 916.909 155.24ZM916.909 145.9C915.289 145.9 914.149 147.14 914.149 148.84V148.98H919.469V148.78C919.469 147.06 918.469 145.9 916.909 145.9ZM938.51 155H937.45C936.31 155 935.77 154.28 935.63 153.28H935.53C935.11 154.56 934.01 155.24 932.53 155.24C930.37 155.24 929.11 154.04 929.11 152.14C929.11 150.14 930.57 149.06 933.53 149.06H935.49V148.12C935.49 146.74 934.75 145.96 933.19 145.96C931.97 145.96 931.19 146.56 930.65 147.44L929.53 146.42C930.15 145.3 931.37 144.4 933.29 144.4C935.87 144.4 937.35 145.72 937.35 147.96V153.42H938.51V155ZM932.95 153.74C934.41 153.74 935.49 153 935.49 151.96V150.36H933.51C931.81 150.36 931.05 150.88 931.05 151.84V152.24C931.05 153.2 931.79 153.74 932.95 153.74ZM944.511 155.24C942.591 155.24 941.331 154.46 940.371 153.24L941.631 152.16C942.411 153.14 943.371 153.7 944.631 153.7C945.951 153.7 946.671 153.12 946.671 152.16C946.671 151.4 946.271 150.86 945.011 150.68L944.131 150.54C942.151 150.26 940.771 149.44 940.771 147.52C940.771 145.48 942.351 144.4 944.531 144.4C946.291 144.4 947.391 145.02 948.271 146.06L947.091 147.18C946.591 146.52 945.711 145.94 944.471 145.94C943.211 145.94 942.571 146.52 942.571 147.4C942.571 148.32 943.171 148.7 944.371 148.88L945.251 149.02C947.531 149.36 948.471 150.36 948.471 151.96C948.471 153.98 946.951 155.24 944.511 155.24ZM955.483 151.26L957.803 144.64H959.603L955.103 157.26C954.623 158.56 954.123 159 952.543 159H951.523V157.42H953.223L953.923 155.42L950.083 144.64H951.943L954.243 151.26L954.783 153.2H954.883L955.483 151.26ZM964 155H962.14V144.64H964V146.34H964.1C964.58 145.2 965.46 144.4 967.02 144.4C969.14 144.4 970.44 145.86 970.44 148.38V155H968.58V148.66C968.58 146.92 967.86 146.02 966.4 146.02C965.18 146.02 964 146.64 964 147.9V155ZM978.125 155.24C975.165 155.24 973.465 153.14 973.465 149.82C973.465 146.5 975.165 144.4 978.125 144.4C980.165 144.4 981.445 145.4 982.045 146.88L980.505 147.64C980.165 146.62 979.325 146 978.125 146C976.345 146 975.445 147.22 975.445 148.92V150.72C975.445 152.42 976.345 153.64 978.125 153.64C979.385 153.64 980.245 153 980.765 151.88L982.125 152.72C981.465 154.28 980.105 155.24 978.125 155.24ZM996.789 155V153.3H996.709C996.229 154.58 995.149 155.24 993.729 155.24C991.129 155.24 989.569 153.18 989.569 149.82C989.569 146.46 991.129 144.4 993.729 144.4C995.149 144.4 996.229 145.06 996.709 146.34H996.789V140.2H998.649V155H996.789ZM994.269 153.62C995.669 153.62 996.789 152.82 996.789 151.72V147.92C996.789 146.82 995.669 146.02 994.269 146.02C992.609 146.02 991.549 147.2 991.549 148.94V150.7C991.549 152.44 992.609 153.62 994.269 153.62ZM1008.87 155V153.3H1008.77C1008.39 154.3 1007.59 155.24 1005.87 155.24C1003.75 155.24 1002.43 153.78 1002.43 151.26V144.64H1004.29V150.98C1004.29 152.72 1005.03 153.62 1006.49 153.62C1007.67 153.62 1008.87 153.02 1008.87 151.72V144.64H1010.73V155H1008.87ZM1023.21 155H1022.15C1021.01 155 1020.47 154.28 1020.33 153.28H1020.23C1019.81 154.56 1018.71 155.24 1017.23 155.24C1015.07 155.24 1013.81 154.04 1013.81 152.14C1013.81 150.14 1015.27 149.06 1018.23 149.06H1020.19V148.12C1020.19 146.74 1019.45 145.96 1017.89 145.96C1016.67 145.96 1015.89 146.56 1015.35 147.44L1014.23 146.42C1014.85 145.3 1016.07 144.4 1017.99 144.4C1020.57 144.4 1022.05 145.72 1022.05 147.96V153.42H1023.21V155ZM1017.65 153.74C1019.11 153.74 1020.19 153 1020.19 151.96V150.36H1018.21C1016.51 150.36 1015.75 150.88 1015.75 151.84V152.24C1015.75 153.2 1016.49 153.74 1017.65 153.74ZM1029.37 155H1027.97C1026.69 155 1026.03 154.24 1026.03 153.1V140.2H1027.89V153.42H1029.37V155ZM860.5 179H858.64V168.64H860.5V170.62H860.6C860.94 169.6 861.86 168.64 863.52 168.64H864.14V170.5H863.22C861.5 170.5 860.5 171.18 860.5 172.2V179ZM870.602 179.24C867.722 179.24 865.902 177.1 865.902 173.82C865.902 170.54 867.722 168.4 870.602 168.4C873.502 168.4 875.142 170.6 875.142 173.5V174.28H867.842V174.7C867.842 176.42 868.902 177.66 870.762 177.66C872.062 177.66 873.002 177.04 873.562 175.98L874.762 177C874.042 178.34 872.542 179.24 870.602 179.24ZM870.602 169.9C868.982 169.9 867.842 171.14 867.842 172.84V172.98H873.162V172.78C873.162 171.06 872.162 169.9 870.602 169.9ZM886.878 179H885.818C884.678 179 884.138 178.28 883.998 177.28H883.898C883.478 178.56 882.378 179.24 880.898 179.24C878.738 179.24 877.478 178.04 877.478 176.14C877.478 174.14 878.938 173.06 881.898 173.06H883.858V172.12C883.858 170.74 883.118 169.96 881.558 169.96C880.338 169.96 879.558 170.56 879.018 171.44L877.898 170.42C878.518 169.3 879.738 168.4 881.658 168.4C884.238 168.4 885.718 169.72 885.718 171.96V177.42H886.878V179ZM881.318 177.74C882.778 177.74 883.858 177 883.858 175.96V174.36H881.878C880.178 174.36 879.418 174.88 879.418 175.84V176.24C879.418 177.2 880.158 177.74 881.318 177.74ZM896.258 179V177.3H896.178C895.698 178.58 894.618 179.24 893.198 179.24C890.598 179.24 889.038 177.18 889.038 173.82C889.038 170.46 890.598 168.4 893.198 168.4C894.618 168.4 895.698 169.06 896.178 170.34H896.258V164.2H898.118V179H896.258ZM893.738 177.62C895.138 177.62 896.258 176.82 896.258 175.72V171.92C896.258 170.82 895.138 170.02 893.738 170.02C892.078 170.02 891.018 171.2 891.018 172.94V174.7C891.018 176.44 892.078 177.62 893.738 177.62ZM905.177 179.24C903.257 179.24 901.997 178.46 901.037 177.24L902.297 176.16C903.077 177.14 904.037 177.7 905.297 177.7C906.617 177.7 907.337 177.12 907.337 176.16C907.337 175.4 906.937 174.86 905.677 174.68L904.797 174.54C902.817 174.26 901.437 173.44 901.437 171.52C901.437 169.48 903.017 168.4 905.197 168.4C906.957 168.4 908.057 169.02 908.937 170.06L907.757 171.18C907.257 170.52 906.377 169.94 905.137 169.94C903.877 169.94 903.237 170.52 903.237 171.4C903.237 172.32 903.837 172.7 905.037 172.88L905.917 173.02C908.197 173.36 909.137 174.36 909.137 175.96C909.137 177.98 907.617 179.24 905.177 179.24ZM917.568 172.76C917.568 168.88 919.188 165.48 921.168 163.8H922.968C920.808 165.72 919.308 169.02 919.308 171.94V173.58C919.308 176.5 920.808 179.8 922.968 181.72H921.168C919.188 180.04 917.568 176.64 917.568 172.76ZM929.066 179.24C926.246 179.24 924.346 177.12 924.346 173.82C924.346 170.52 926.246 168.4 929.066 168.4C931.886 168.4 933.786 170.52 933.786 173.82C933.786 177.12 931.886 179.24 929.066 179.24ZM929.066 177.64C930.686 177.64 931.806 176.62 931.806 174.6V173.04C931.806 171.02 930.686 170 929.066 170C927.446 170 926.326 171.02 926.326 173.04V174.6C926.326 176.62 927.446 177.64 929.066 177.64ZM936.917 183V168.64H938.777V170.34H938.857C939.337 169.06 940.417 168.4 941.837 168.4C944.437 168.4 945.997 170.46 945.997 173.82C945.997 177.18 944.437 179.24 941.837 179.24C940.417 179.24 939.337 178.58 938.857 177.3H938.777V183H936.917ZM941.297 177.62C942.957 177.62 944.017 176.44 944.017 174.7V172.94C944.017 171.2 942.957 170.02 941.297 170.02C939.897 170.02 938.777 170.82 938.777 171.92V175.72C938.777 176.82 939.897 177.62 941.297 177.62ZM953.599 179H951.639C950.359 179 949.679 178.24 949.679 177.04V170.22H948.019V168.64H948.939C949.639 168.64 949.859 168.38 949.859 167.68V165.78H951.539V168.64H953.759V170.22H951.539V177.42H953.599V179ZM957.787 166.48C957.007 166.48 956.667 166.06 956.667 165.46V165.18C956.667 164.58 957.007 164.16 957.787 164.16C958.567 164.16 958.907 164.58 958.907 165.18V165.46C958.907 166.06 958.567 166.48 957.787 166.48ZM956.847 179V168.64H958.707V179H956.847ZM966.564 179.24C963.744 179.24 961.844 177.12 961.844 173.82C961.844 170.52 963.744 168.4 966.564 168.4C969.384 168.4 971.284 170.52 971.284 173.82C971.284 177.12 969.384 179.24 966.564 179.24ZM966.564 177.64C968.184 177.64 969.304 176.62 969.304 174.6V173.04C969.304 171.02 968.184 170 966.564 170C964.944 170 963.824 171.02 963.824 173.04V174.6C963.824 176.62 964.944 177.64 966.564 177.64ZM976.274 179H974.414V168.64H976.274V170.34H976.374C976.854 169.2 977.734 168.4 979.294 168.4C981.414 168.4 982.714 169.86 982.714 172.38V179H980.854V172.66C980.854 170.92 980.134 170.02 978.674 170.02C977.454 170.02 976.274 170.64 976.274 171.9V179ZM995.079 179H994.019C992.879 179 992.339 178.28 992.199 177.28H992.099C991.679 178.56 990.579 179.24 989.099 179.24C986.939 179.24 985.679 178.04 985.679 176.14C985.679 174.14 987.139 173.06 990.099 173.06H992.059V172.12C992.059 170.74 991.319 169.96 989.759 169.96C988.539 169.96 987.759 170.56 987.219 171.44L986.099 170.42C986.719 169.3 987.939 168.4 989.859 168.4C992.439 168.4 993.919 169.72 993.919 171.96V177.42H995.079V179ZM989.519 177.74C990.979 177.74 992.059 177 992.059 175.96V174.36H990.079C988.379 174.36 987.619 174.88 987.619 175.84V176.24C987.619 177.2 988.359 177.74 989.519 177.74ZM1001.24 179H999.839C998.559 179 997.899 178.24 997.899 177.1V164.2H999.759V177.42H1001.24V179ZM1007.71 172.76C1007.71 176.64 1006.09 180.04 1004.11 181.72H1002.31C1004.47 179.8 1005.97 176.5 1005.97 173.58V171.94C1005.97 169.02 1004.47 165.72 1002.31 163.8H1004.11C1006.09 165.48 1007.71 168.88 1007.71 172.76Z" fill="white"/>
<path d="M1142 64H1435L1475 140L1435 216H1142L1182 140L1142 64Z" fill="#161616"/>
<path d="M1211.14 122H1207.97V105.248H1215.5C1218.6 105.248 1220.47 107.336 1220.47 110.432C1220.47 113.552 1218.6 115.616 1215.5 115.616H1211.14V122ZM1211.14 108.008V112.88H1215.22C1216.44 112.88 1217.18 112.208 1217.18 110.984V109.88C1217.18 108.656 1216.44 108.008 1215.22 108.008H1211.14ZM1223.87 122V104.24H1226.94V111.56H1227.06C1227.57 110.216 1228.62 109.184 1230.57 109.184C1233.13 109.184 1234.58 110.96 1234.58 114.08V122H1231.5V114.392C1231.5 112.616 1230.9 111.704 1229.44 111.704C1228.17 111.704 1226.94 112.376 1226.94 113.72V122H1223.87ZM1241.8 122.288C1239.25 122.288 1237.81 120.824 1237.81 118.592C1237.81 116.024 1239.76 114.752 1243.16 114.752H1245.3V113.84C1245.3 112.448 1244.6 111.632 1242.97 111.632C1241.53 111.632 1240.72 112.352 1240.12 113.216L1238.29 111.584C1239.2 110.144 1240.67 109.184 1243.19 109.184C1246.57 109.184 1248.37 110.792 1248.37 113.648V119.552H1249.62V122H1247.92C1246.6 122 1245.78 121.136 1245.59 119.84H1245.44C1245.04 121.448 1243.67 122.288 1241.8 122.288ZM1242.83 120.056C1244.2 120.056 1245.3 119.432 1245.3 118.256V116.6H1243.33C1241.72 116.6 1240.93 117.152 1240.93 118.136V118.544C1240.93 119.552 1241.63 120.056 1242.83 120.056ZM1256.93 122.288C1254.55 122.288 1252.99 121.424 1251.75 119.984L1253.62 118.16C1254.53 119.216 1255.63 119.864 1257.05 119.864C1258.51 119.864 1259.14 119.312 1259.14 118.424C1259.14 117.704 1258.71 117.248 1257.6 117.104L1256.35 116.936C1253.67 116.6 1252.18 115.424 1252.18 113.144C1252.18 110.72 1254.07 109.184 1256.93 109.184C1259.38 109.184 1260.63 109.904 1261.83 111.152L1260.03 112.952C1259.31 112.184 1258.25 111.608 1257.03 111.608C1255.71 111.608 1255.13 112.136 1255.13 112.904C1255.13 113.744 1255.59 114.128 1256.76 114.32L1258.03 114.488C1260.77 114.872 1262.09 116.096 1262.09 118.184C1262.09 120.608 1260.05 122.288 1256.93 122.288ZM1270.59 122.288C1266.89 122.288 1264.68 119.72 1264.68 115.712C1264.68 111.752 1266.82 109.184 1270.49 109.184C1274.4 109.184 1276.2 112.064 1276.2 115.496V116.504H1267.88V116.816C1267.88 118.616 1268.91 119.84 1270.92 119.84C1272.44 119.84 1273.35 119.12 1274.12 118.136L1275.77 119.984C1274.74 121.4 1272.92 122.288 1270.59 122.288ZM1270.54 111.488C1268.93 111.488 1267.88 112.688 1267.88 114.416V114.608H1273.01V114.392C1273.01 112.664 1272.12 111.488 1270.54 111.488ZM1295.59 122H1292.59V118.76H1285.01V116.072L1291.68 105.248H1295.59V116.312H1297.78V118.76H1295.59V122ZM1292.4 108.32L1287.6 116.312H1292.59V108.32H1292.4Z" fill="white"/>
<path d="M1212.86 155.24C1209.3 155.24 1207.12 152.68 1207.12 148.02C1207.12 143.36 1209.3 140.8 1212.86 140.8C1215.22 140.8 1216.84 141.9 1217.74 143.9L1216.14 144.82C1215.62 143.44 1214.54 142.54 1212.86 142.54C1210.58 142.54 1209.2 144.24 1209.2 146.96V149.08C1209.2 151.8 1210.58 153.5 1212.86 153.5C1214.58 153.5 1215.74 152.52 1216.26 151.08L1217.82 152.02C1216.92 154.02 1215.22 155.24 1212.86 155.24ZM1220.78 155V140.2H1222.64V146.34H1222.74C1223.22 145.2 1224.1 144.4 1225.66 144.4C1227.78 144.4 1229.08 145.86 1229.08 148.38V155H1227.22V148.66C1227.22 146.92 1226.5 146.02 1225.04 146.02C1223.82 146.02 1222.64 146.64 1222.64 147.9V155H1220.78ZM1241.44 155H1240.38C1239.24 155 1238.7 154.28 1238.56 153.28H1238.46C1238.04 154.56 1236.94 155.24 1235.46 155.24C1233.3 155.24 1232.04 154.04 1232.04 152.14C1232.04 150.14 1233.5 149.06 1236.46 149.06H1238.42V148.12C1238.42 146.74 1237.68 145.96 1236.12 145.96C1234.9 145.96 1234.12 146.56 1233.58 147.44L1232.46 146.42C1233.08 145.3 1234.3 144.4 1236.22 144.4C1238.8 144.4 1240.28 145.72 1240.28 147.96V153.42H1241.44V155ZM1235.88 153.74C1237.34 153.74 1238.42 153 1238.42 151.96V150.36H1236.44C1234.74 150.36 1233.98 150.88 1233.98 151.84V152.24C1233.98 153.2 1234.72 153.74 1235.88 153.74ZM1246.12 155H1244.26V144.64H1246.12V146.34H1246.22C1246.7 145.2 1247.58 144.4 1249.14 144.4C1251.26 144.4 1252.56 145.86 1252.56 148.38V155H1250.7V148.66C1250.7 146.92 1249.98 146.02 1248.52 146.02C1247.3 146.02 1246.12 146.64 1246.12 147.9V155ZM1265.23 156.06C1265.23 158.2 1263.59 159.24 1260.09 159.24C1256.79 159.24 1255.47 158.32 1255.47 156.72C1255.47 155.6 1256.11 154.98 1257.17 154.72V154.5C1256.51 154.24 1256.15 153.72 1256.15 152.98C1256.15 151.94 1256.93 151.42 1257.95 151.18V151.1C1256.73 150.52 1256.03 149.38 1256.03 147.96C1256.03 145.86 1257.55 144.4 1260.03 144.4C1260.75 144.4 1261.39 144.54 1261.95 144.76V144.54C1261.95 143.68 1262.33 143.12 1263.21 143.12H1264.79V144.68H1262.75V145.24C1263.59 145.86 1264.05 146.82 1264.05 147.96C1264.05 150.06 1262.53 151.5 1260.03 151.5C1259.63 151.5 1259.21 151.46 1258.87 151.38C1258.27 151.56 1257.69 151.9 1257.69 152.48C1257.69 153.08 1258.27 153.26 1259.21 153.26H1261.57C1264.13 153.26 1265.23 154.32 1265.23 156.06ZM1263.49 156.24C1263.49 155.46 1262.97 154.96 1261.45 154.96H1257.97C1257.39 155.26 1257.13 155.7 1257.13 156.28C1257.13 157.14 1257.75 157.82 1259.37 157.82H1260.77C1262.53 157.82 1263.49 157.3 1263.49 156.24ZM1260.05 150.1C1261.37 150.1 1262.19 149.48 1262.19 148.22V147.7C1262.19 146.44 1261.37 145.82 1260.05 145.82C1258.73 145.82 1257.91 146.44 1257.91 147.7V148.22C1257.91 149.48 1258.73 150.1 1260.05 150.1ZM1271.44 155.24C1268.56 155.24 1266.74 153.1 1266.74 149.82C1266.74 146.54 1268.56 144.4 1271.44 144.4C1274.34 144.4 1275.98 146.6 1275.98 149.5V150.28H1268.68V150.7C1268.68 152.42 1269.74 153.66 1271.6 153.66C1272.9 153.66 1273.84 153.04 1274.4 151.98L1275.6 153C1274.88 154.34 1273.38 155.24 1271.44 155.24ZM1271.44 145.9C1269.82 145.9 1268.68 147.14 1268.68 148.84V148.98H1274V148.78C1274 147.06 1273 145.9 1271.44 145.9ZM1286.3 155H1284.44V144.64H1286.3V146.62H1286.4C1286.74 145.6 1287.66 144.64 1289.32 144.64H1289.94V146.5H1289.02C1287.3 146.5 1286.3 147.18 1286.3 148.2V155ZM1296.4 155.24C1293.52 155.24 1291.7 153.1 1291.7 149.82C1291.7 146.54 1293.52 144.4 1296.4 144.4C1299.3 144.4 1300.94 146.6 1300.94 149.5V150.28H1293.64V150.7C1293.64 152.42 1294.7 153.66 1296.56 153.66C1297.86 153.66 1298.8 153.04 1299.36 151.98L1300.56 153C1299.84 154.34 1298.34 155.24 1296.4 155.24ZM1296.4 145.9C1294.78 145.9 1293.64 147.14 1293.64 148.84V148.98H1298.96V148.78C1298.96 147.06 1297.96 145.9 1296.4 145.9ZM1312.68 155H1311.62C1310.48 155 1309.94 154.28 1309.8 153.28H1309.7C1309.28 154.56 1308.18 155.24 1306.7 155.24C1304.54 155.24 1303.28 154.04 1303.28 152.14C1303.28 150.14 1304.74 149.06 1307.7 149.06H1309.66V148.12C1309.66 146.74 1308.92 145.96 1307.36 145.96C1306.14 145.96 1305.36 146.56 1304.82 147.44L1303.7 146.42C1304.32 145.3 1305.54 144.4 1307.46 144.4C1310.04 144.4 1311.52 145.72 1311.52 147.96V153.42H1312.68V155ZM1307.12 153.74C1308.58 153.74 1309.66 153 1309.66 151.96V150.36H1307.68C1305.98 150.36 1305.22 150.88 1305.22 151.84V152.24C1305.22 153.2 1305.96 153.74 1307.12 153.74ZM1322.06 155V153.3H1321.98C1321.5 154.58 1320.42 155.24 1319 155.24C1316.4 155.24 1314.84 153.18 1314.84 149.82C1314.84 146.46 1316.4 144.4 1319 144.4C1320.42 144.4 1321.5 145.06 1321.98 146.34H1322.06V140.2H1323.92V155H1322.06ZM1319.54 153.62C1320.94 153.62 1322.06 152.82 1322.06 151.72V147.92C1322.06 146.82 1320.94 146.02 1319.54 146.02C1317.88 146.02 1316.82 147.2 1316.82 148.94V150.7C1316.82 152.44 1317.88 153.62 1319.54 153.62ZM1334.98 155H1333.12V144.64H1334.98V146.62H1335.08C1335.42 145.6 1336.34 144.64 1338 144.64H1338.62V146.5H1337.7C1335.98 146.5 1334.98 147.18 1334.98 148.2V155ZM1345.1 155.24C1342.28 155.24 1340.38 153.12 1340.38 149.82C1340.38 146.52 1342.28 144.4 1345.1 144.4C1347.92 144.4 1349.82 146.52 1349.82 149.82C1349.82 153.12 1347.92 155.24 1345.1 155.24ZM1345.1 153.64C1346.72 153.64 1347.84 152.62 1347.84 150.6V149.04C1347.84 147.02 1346.72 146 1345.1 146C1343.48 146 1342.36 147.02 1342.36 149.04V150.6C1342.36 152.62 1343.48 153.64 1345.1 153.64ZM1359.29 155V153.3H1359.19C1358.81 154.3 1358.01 155.24 1356.29 155.24C1354.17 155.24 1352.85 153.78 1352.85 151.26V144.64H1354.71V150.98C1354.71 152.72 1355.45 153.62 1356.91 153.62C1358.09 153.62 1359.29 153.02 1359.29 151.72V144.64H1361.15V155H1359.29ZM1369.54 155H1367.58C1366.3 155 1365.62 154.24 1365.62 153.04V146.22H1363.96V144.64H1364.88C1365.58 144.64 1365.8 144.38 1365.8 143.68V141.78H1367.48V144.64H1369.7V146.22H1367.48V153.42H1369.54V155ZM1373.73 142.48C1372.95 142.48 1372.61 142.06 1372.61 141.46V141.18C1372.61 140.58 1372.95 140.16 1373.73 140.16C1374.51 140.16 1374.85 140.58 1374.85 141.18V141.46C1374.85 142.06 1374.51 142.48 1373.73 142.48ZM1372.79 155V144.64H1374.65V155H1372.79ZM1380.38 155H1378.52V144.64H1380.38V146.34H1380.48C1380.96 145.2 1381.84 144.4 1383.4 144.4C1385.52 144.4 1386.82 145.86 1386.82 148.38V155H1384.96V148.66C1384.96 146.92 1384.24 146.02 1382.78 146.02C1381.56 146.02 1380.38 146.64 1380.38 147.9V155ZM1399.49 156.06C1399.49 158.2 1397.85 159.24 1394.35 159.24C1391.05 159.24 1389.73 158.32 1389.73 156.72C1389.73 155.6 1390.37 154.98 1391.43 154.72V154.5C1390.77 154.24 1390.41 153.72 1390.41 152.98C1390.41 151.94 1391.19 151.42 1392.21 151.18V151.1C1390.99 150.52 1390.29 149.38 1390.29 147.96C1390.29 145.86 1391.81 144.4 1394.29 144.4C1395.01 144.4 1395.65 144.54 1396.21 144.76V144.54C1396.21 143.68 1396.59 143.12 1397.47 143.12H1399.05V144.68H1397.01V145.24C1397.85 145.86 1398.31 146.82 1398.31 147.96C1398.31 150.06 1396.79 151.5 1394.29 151.5C1393.89 151.5 1393.47 151.46 1393.13 151.38C1392.53 151.56 1391.95 151.9 1391.95 152.48C1391.95 153.08 1392.53 153.26 1393.47 153.26H1395.83C1398.39 153.26 1399.49 154.32 1399.49 156.06ZM1397.75 156.24C1397.75 155.46 1397.23 154.96 1395.71 154.96H1392.23C1391.65 155.26 1391.39 155.7 1391.39 156.28C1391.39 157.14 1392.01 157.82 1393.63 157.82H1395.03C1396.79 157.82 1397.75 157.3 1397.75 156.24ZM1394.31 150.1C1395.63 150.1 1396.45 149.48 1396.45 148.22V147.7C1396.45 146.44 1395.63 145.82 1394.31 145.82C1392.99 145.82 1392.17 146.44 1392.17 147.7V148.22C1392.17 149.48 1392.99 150.1 1394.31 150.1ZM1411.68 155H1409.72C1408.44 155 1407.76 154.24 1407.76 153.04V146.22H1406.1V144.64H1407.02C1407.72 144.64 1407.94 144.38 1407.94 143.68V141.78H1409.62V144.64H1411.84V146.22H1409.62V153.42H1411.68V155ZM1418.83 155.24C1416.01 155.24 1414.11 153.12 1414.11 149.82C1414.11 146.52 1416.01 144.4 1418.83 144.4C1421.65 144.4 1423.55 146.52 1423.55 149.82C1423.55 153.12 1421.65 155.24 1418.83 155.24ZM1418.83 153.64C1420.45 153.64 1421.57 152.62 1421.57 150.6V149.04C1421.57 147.02 1420.45 146 1418.83 146C1417.21 146 1416.09 147.02 1416.09 149.04V150.6C1416.09 152.62 1417.21 153.64 1418.83 153.64ZM1212.14 179H1210.18C1208.9 179 1208.22 178.24 1208.22 177.04V170.22H1206.56V168.64H1207.48C1208.18 168.64 1208.4 168.38 1208.4 167.68V165.78H1210.08V168.64H1212.3V170.22H1210.08V177.42H1212.14V179ZM1223.99 179H1222.93C1221.79 179 1221.25 178.28 1221.11 177.28H1221.01C1220.59 178.56 1219.49 179.24 1218.01 179.24C1215.85 179.24 1214.59 178.04 1214.59 176.14C1214.59 174.14 1216.05 173.06 1219.01 173.06H1220.97V172.12C1220.97 170.74 1220.23 169.96 1218.67 169.96C1217.45 169.96 1216.67 170.56 1216.13 171.44L1215.01 170.42C1215.63 169.3 1216.85 168.4 1218.77 168.4C1221.35 168.4 1222.83 169.72 1222.83 171.96V177.42H1223.99V179ZM1218.43 177.74C1219.89 177.74 1220.97 177 1220.97 175.96V174.36H1218.99C1217.29 174.36 1216.53 174.88 1216.53 175.84V176.24C1216.53 177.2 1217.27 177.74 1218.43 177.74ZM1228.67 179H1226.81V168.64H1228.67V170.62H1228.77C1229.11 169.6 1230.03 168.64 1231.69 168.64H1232.31V170.5H1231.39C1229.67 170.5 1228.67 171.18 1228.67 172.2V179ZM1243.38 180.06C1243.38 182.2 1241.74 183.24 1238.24 183.24C1234.94 183.24 1233.62 182.32 1233.62 180.72C1233.62 179.6 1234.26 178.98 1235.32 178.72V178.5C1234.66 178.24 1234.3 177.72 1234.3 176.98C1234.3 175.94 1235.08 175.42 1236.1 175.18V175.1C1234.88 174.52 1234.18 173.38 1234.18 171.96C1234.18 169.86 1235.7 168.4 1238.18 168.4C1238.9 168.4 1239.54 168.54 1240.1 168.76V168.54C1240.1 167.68 1240.48 167.12 1241.36 167.12H1242.94V168.68H1240.9V169.24C1241.74 169.86 1242.2 170.82 1242.2 171.96C1242.2 174.06 1240.68 175.5 1238.18 175.5C1237.78 175.5 1237.36 175.46 1237.02 175.38C1236.42 175.56 1235.84 175.9 1235.84 176.48C1235.84 177.08 1236.42 177.26 1237.36 177.26H1239.72C1242.28 177.26 1243.38 178.32 1243.38 180.06ZM1241.64 180.24C1241.64 179.46 1241.12 178.96 1239.6 178.96H1236.12C1235.54 179.26 1235.28 179.7 1235.28 180.28C1235.28 181.14 1235.9 181.82 1237.52 181.82H1238.92C1240.68 181.82 1241.64 181.3 1241.64 180.24ZM1238.2 174.1C1239.52 174.1 1240.34 173.48 1240.34 172.22V171.7C1240.34 170.44 1239.52 169.82 1238.2 169.82C1236.88 169.82 1236.06 170.44 1236.06 171.7V172.22C1236.06 173.48 1236.88 174.1 1238.2 174.1ZM1249.59 179.24C1246.71 179.24 1244.89 177.1 1244.89 173.82C1244.89 170.54 1246.71 168.4 1249.59 168.4C1252.49 168.4 1254.13 170.6 1254.13 173.5V174.28H1246.83V174.7C1246.83 176.42 1247.89 177.66 1249.75 177.66C1251.05 177.66 1251.99 177.04 1252.55 175.98L1253.75 177C1253.03 178.34 1251.53 179.24 1249.59 179.24ZM1249.59 169.9C1247.97 169.9 1246.83 171.14 1246.83 172.84V172.98H1252.15V172.78C1252.15 171.06 1251.15 169.9 1249.59 169.9ZM1261.76 179H1259.8C1258.52 179 1257.84 178.24 1257.84 177.04V170.22H1256.18V168.64H1257.1C1257.8 168.64 1258.02 168.38 1258.02 167.68V165.78H1259.7V168.64H1261.92V170.22H1259.7V177.42H1261.76V179ZM1274.26 179.24C1271.3 179.24 1269.6 177.14 1269.6 173.82C1269.6 170.5 1271.3 168.4 1274.26 168.4C1276.3 168.4 1277.58 169.4 1278.18 170.88L1276.64 171.64C1276.3 170.62 1275.46 170 1274.26 170C1272.48 170 1271.58 171.22 1271.58 172.92V174.72C1271.58 176.42 1272.48 177.64 1274.26 177.64C1275.52 177.64 1276.38 177 1276.9 175.88L1278.26 176.72C1277.6 178.28 1276.24 179.24 1274.26 179.24ZM1284.37 179H1282.97C1281.69 179 1281.03 178.24 1281.03 177.1V164.2H1282.89V177.42H1284.37V179ZM1293.54 179V177.3H1293.44C1293.06 178.3 1292.26 179.24 1290.54 179.24C1288.42 179.24 1287.1 177.78 1287.1 175.26V168.64H1288.96V174.98C1288.96 176.72 1289.7 177.62 1291.16 177.62C1292.34 177.62 1293.54 177.02 1293.54 175.72V168.64H1295.4V179H1293.54ZM1302.46 179.24C1300.54 179.24 1299.28 178.46 1298.32 177.24L1299.58 176.16C1300.36 177.14 1301.32 177.7 1302.58 177.7C1303.9 177.7 1304.62 177.12 1304.62 176.16C1304.62 175.4 1304.22 174.86 1302.96 174.68L1302.08 174.54C1300.1 174.26 1298.72 173.44 1298.72 171.52C1298.72 169.48 1300.3 168.4 1302.48 168.4C1304.24 168.4 1305.34 169.02 1306.22 170.06L1305.04 171.18C1304.54 170.52 1303.66 169.94 1302.42 169.94C1301.16 169.94 1300.52 170.52 1300.52 171.4C1300.52 172.32 1301.12 172.7 1302.32 172.88L1303.2 173.02C1305.48 173.36 1306.42 174.36 1306.42 175.96C1306.42 177.98 1304.9 179.24 1302.46 179.24ZM1314.05 179H1312.09C1310.81 179 1310.13 178.24 1310.13 177.04V170.22H1308.47V168.64H1309.39C1310.09 168.64 1310.31 168.38 1310.31 167.68V165.78H1311.99V168.64H1314.21V170.22H1311.99V177.42H1314.05V179ZM1321.18 179.24C1318.3 179.24 1316.48 177.1 1316.48 173.82C1316.48 170.54 1318.3 168.4 1321.18 168.4C1324.08 168.4 1325.72 170.6 1325.72 173.5V174.28H1318.42V174.7C1318.42 176.42 1319.48 177.66 1321.34 177.66C1322.64 177.66 1323.58 177.04 1324.14 175.98L1325.34 177C1324.62 178.34 1323.12 179.24 1321.18 179.24ZM1321.18 169.9C1319.56 169.9 1318.42 171.14 1318.42 172.84V172.98H1323.74V172.78C1323.74 171.06 1322.74 169.9 1321.18 169.9ZM1330.72 179H1328.86V168.64H1330.72V170.62H1330.82C1331.16 169.6 1332.08 168.64 1333.74 168.64H1334.36V170.5H1333.44C1331.72 170.5 1330.72 171.18 1330.72 172.2V179Z" fill="white"/>
<path d="M1491 64H1784L1824 140L1784 216H1491L1531 140L1491 64Z" fill="#0F62FE"/>
<path d="M1560.14 122H1556.97V105.248H1564.5C1567.6 105.248 1569.47 107.336 1569.47 110.432C1569.47 113.552 1567.6 115.616 1564.5 115.616H1560.14V122ZM1560.14 108.008V112.88H1564.22C1565.44 112.88 1566.18 112.208 1566.18 110.984V109.88C1566.18 108.656 1565.44 108.008 1564.22 108.008H1560.14ZM1572.87 122V104.24H1575.94V111.56H1576.06C1576.57 110.216 1577.62 109.184 1579.57 109.184C1582.13 109.184 1583.58 110.96 1583.58 114.08V122H1580.5V114.392C1580.5 112.616 1579.9 111.704 1578.44 111.704C1577.17 111.704 1575.94 112.376 1575.94 113.72V122H1572.87ZM1590.8 122.288C1588.25 122.288 1586.81 120.824 1586.81 118.592C1586.81 116.024 1588.76 114.752 1592.16 114.752H1594.3V113.84C1594.3 112.448 1593.6 111.632 1591.97 111.632C1590.53 111.632 1589.72 112.352 1589.12 113.216L1587.29 111.584C1588.2 110.144 1589.67 109.184 1592.19 109.184C1595.57 109.184 1597.37 110.792 1597.37 113.648V119.552H1598.62V122H1596.92C1595.6 122 1594.78 121.136 1594.59 119.84H1594.44C1594.04 121.448 1592.67 122.288 1590.8 122.288ZM1591.83 120.056C1593.2 120.056 1594.3 119.432 1594.3 118.256V116.6H1592.33C1590.72 116.6 1589.93 117.152 1589.93 118.136V118.544C1589.93 119.552 1590.63 120.056 1591.83 120.056ZM1605.93 122.288C1603.55 122.288 1601.99 121.424 1600.75 119.984L1602.62 118.16C1603.53 119.216 1604.63 119.864 1606.05 119.864C1607.51 119.864 1608.14 119.312 1608.14 118.424C1608.14 117.704 1607.71 117.248 1606.6 117.104L1605.35 116.936C1602.67 116.6 1601.18 115.424 1601.18 113.144C1601.18 110.72 1603.07 109.184 1605.93 109.184C1608.38 109.184 1609.63 109.904 1610.83 111.152L1609.03 112.952C1608.31 112.184 1607.25 111.608 1606.03 111.608C1604.71 111.608 1604.13 112.136 1604.13 112.904C1604.13 113.744 1604.59 114.128 1605.76 114.32L1607.03 114.488C1609.77 114.872 1611.09 116.096 1611.09 118.184C1611.09 120.608 1609.05 122.288 1605.93 122.288ZM1619.59 122.288C1615.89 122.288 1613.68 119.72 1613.68 115.712C1613.68 111.752 1615.82 109.184 1619.49 109.184C1623.4 109.184 1625.2 112.064 1625.2 115.496V116.504H1616.88V116.816C1616.88 118.616 1617.91 119.84 1619.92 119.84C1621.44 119.84 1622.35 119.12 1623.12 118.136L1624.77 119.984C1623.74 121.4 1621.92 122.288 1619.59 122.288ZM1619.54 111.488C1617.93 111.488 1616.88 112.688 1616.88 114.416V114.608H1622.01V114.392C1622.01 112.664 1621.12 111.488 1619.54 111.488ZM1645.6 105.248V107.984H1638.07L1637.68 113.6H1637.85C1638.57 112.16 1639.39 111.176 1641.4 111.176C1644.28 111.176 1646.51 113.144 1646.51 116.48C1646.51 119.84 1644.28 122.288 1640.32 122.288C1637.23 122.288 1635.57 120.8 1634.56 119.168L1636.87 117.392C1637.61 118.688 1638.52 119.696 1640.35 119.696C1642.22 119.696 1643.23 118.568 1643.23 116.744V116.552C1643.23 114.824 1642.17 113.768 1640.42 113.768C1639.05 113.768 1638.21 114.416 1637.71 115.016L1635.11 114.656L1635.74 105.248H1645.6Z" fill="white"/>
<path d="M1561.86 155.24C1558.3 155.24 1556.12 152.68 1556.12 148.02C1556.12 143.36 1558.3 140.8 1561.86 140.8C1564.22 140.8 1565.84 141.9 1566.74 143.9L1565.14 144.82C1564.62 143.44 1563.54 142.54 1561.86 142.54C1559.58 142.54 1558.2 144.24 1558.2 146.96V149.08C1558.2 151.8 1559.58 153.5 1561.86 153.5C1563.58 153.5 1564.74 152.52 1565.26 151.08L1566.82 152.02C1565.92 154.02 1564.22 155.24 1561.86 155.24ZM1573.76 155.24C1570.94 155.24 1569.04 153.12 1569.04 149.82C1569.04 146.52 1570.94 144.4 1573.76 144.4C1576.58 144.4 1578.48 146.52 1578.48 149.82C1578.48 153.12 1576.58 155.24 1573.76 155.24ZM1573.76 153.64C1575.38 153.64 1576.5 152.62 1576.5 150.6V149.04C1576.5 147.02 1575.38 146 1573.76 146C1572.14 146 1571.02 147.02 1571.02 149.04V150.6C1571.02 152.62 1572.14 153.64 1573.76 153.64ZM1583.47 155H1581.61V144.64H1583.47V146.34H1583.57C1584.05 145.2 1584.93 144.4 1586.49 144.4C1588.61 144.4 1589.91 145.86 1589.91 148.38V155H1588.05V148.66C1588.05 146.92 1587.33 146.02 1585.87 146.02C1584.65 146.02 1583.47 146.64 1583.47 147.9V155ZM1595.53 155H1593.67V144.64H1595.53V146.34H1595.63C1596.11 145.2 1596.99 144.4 1598.55 144.4C1600.67 144.4 1601.97 145.86 1601.97 148.38V155H1600.11V148.66C1600.11 146.92 1599.39 146.02 1597.93 146.02C1596.71 146.02 1595.53 146.64 1595.53 147.9V155ZM1609.7 155.24C1606.82 155.24 1605 153.1 1605 149.82C1605 146.54 1606.82 144.4 1609.7 144.4C1612.6 144.4 1614.24 146.6 1614.24 149.5V150.28H1606.94V150.7C1606.94 152.42 1608 153.66 1609.86 153.66C1611.16 153.66 1612.1 153.04 1612.66 151.98L1613.86 153C1613.14 154.34 1611.64 155.24 1609.7 155.24ZM1609.7 145.9C1608.08 145.9 1606.94 147.14 1606.94 148.84V148.98H1612.26V148.78C1612.26 147.06 1611.26 145.9 1609.7 145.9ZM1621.29 155.24C1618.33 155.24 1616.63 153.14 1616.63 149.82C1616.63 146.5 1618.33 144.4 1621.29 144.4C1623.33 144.4 1624.61 145.4 1625.21 146.88L1623.67 147.64C1623.33 146.62 1622.49 146 1621.29 146C1619.51 146 1618.61 147.22 1618.61 148.92V150.72C1618.61 152.42 1619.51 153.64 1621.29 153.64C1622.55 153.64 1623.41 153 1623.93 151.88L1625.29 152.72C1624.63 154.28 1623.27 155.24 1621.29 155.24ZM1632.57 155H1630.61C1629.33 155 1628.65 154.24 1628.65 153.04V146.22H1626.99V144.64H1627.91C1628.61 144.64 1628.83 144.38 1628.83 143.68V141.78H1630.51V144.64H1632.73V146.22H1630.51V153.42H1632.57V155ZM1649.75 155H1648.69C1647.55 155 1647.01 154.28 1646.87 153.28H1646.77C1646.35 154.56 1645.25 155.24 1643.77 155.24C1641.61 155.24 1640.35 154.04 1640.35 152.14C1640.35 150.14 1641.81 149.06 1644.77 149.06H1646.73V148.12C1646.73 146.74 1645.99 145.96 1644.43 145.96C1643.21 145.96 1642.43 146.56 1641.89 147.44L1640.77 146.42C1641.39 145.3 1642.61 144.4 1644.53 144.4C1647.11 144.4 1648.59 145.72 1648.59 147.96V153.42H1649.75V155ZM1644.19 153.74C1645.65 153.74 1646.73 153 1646.73 151.96V150.36H1644.75C1643.05 150.36 1642.29 150.88 1642.29 151.84V152.24C1642.29 153.2 1643.03 153.74 1644.19 153.74ZM1652.57 159V144.64H1654.43V146.34H1654.51C1654.99 145.06 1656.07 144.4 1657.49 144.4C1660.09 144.4 1661.65 146.46 1661.65 149.82C1661.65 153.18 1660.09 155.24 1657.49 155.24C1656.07 155.24 1654.99 154.58 1654.51 153.3H1654.43V159H1652.57ZM1656.95 153.62C1658.61 153.62 1659.67 152.44 1659.67 150.7V148.94C1659.67 147.2 1658.61 146.02 1656.95 146.02C1655.55 146.02 1654.43 146.82 1654.43 147.92V151.72C1654.43 152.82 1655.55 153.62 1656.95 153.62ZM1664.87 159V144.64H1666.73V146.34H1666.81C1667.29 145.06 1668.37 144.4 1669.79 144.4C1672.39 144.4 1673.95 146.46 1673.95 149.82C1673.95 153.18 1672.39 155.24 1669.79 155.24C1668.37 155.24 1667.29 154.58 1666.81 153.3H1666.73V159H1664.87ZM1669.25 153.62C1670.91 153.62 1671.97 152.44 1671.97 150.7V148.94C1671.97 147.2 1670.91 146.02 1669.25 146.02C1667.85 146.02 1666.73 146.82 1666.73 147.92V151.72C1666.73 152.82 1667.85 153.62 1669.25 153.62ZM1680.35 155.24C1678.43 155.24 1677.17 154.46 1676.21 153.24L1677.47 152.16C1678.25 153.14 1679.21 153.7 1680.47 153.7C1681.79 153.7 1682.51 153.12 1682.51 152.16C1682.51 151.4 1682.11 150.86 1680.85 150.68L1679.97 150.54C1677.99 150.26 1676.61 149.44 1676.61 147.52C1676.61 145.48 1678.19 144.4 1680.37 144.4C1682.13 144.4 1683.23 145.02 1684.11 146.06L1682.93 147.18C1682.43 146.52 1681.55 145.94 1680.31 145.94C1679.05 145.94 1678.41 146.52 1678.41 147.4C1678.41 148.32 1679.01 148.7 1680.21 148.88L1681.09 149.02C1683.37 149.36 1684.31 150.36 1684.31 151.96C1684.31 153.98 1682.79 155.24 1680.35 155.24ZM1697.4 155H1695.44C1694.16 155 1693.48 154.24 1693.48 153.04V146.22H1691.82V144.64H1692.74C1693.44 144.64 1693.66 144.38 1693.66 143.68V141.78H1695.34V144.64H1697.56V146.22H1695.34V153.42H1697.4V155ZM1704.55 155.24C1701.73 155.24 1699.83 153.12 1699.83 149.82C1699.83 146.52 1701.73 144.4 1704.55 144.4C1707.37 144.4 1709.27 146.52 1709.27 149.82C1709.27 153.12 1707.37 155.24 1704.55 155.24ZM1704.55 153.64C1706.17 153.64 1707.29 152.62 1707.29 150.6V149.04C1707.29 147.02 1706.17 146 1704.55 146C1702.93 146 1701.81 147.02 1701.81 149.04V150.6C1701.81 152.62 1702.93 153.64 1704.55 153.64ZM1561.14 179H1559.18C1557.9 179 1557.22 178.24 1557.22 177.04V170.22H1555.56V168.64H1556.48C1557.18 168.64 1557.4 168.38 1557.4 167.68V165.78H1559.08V168.64H1561.3V170.22H1559.08V177.42H1561.14V179ZM1572.99 179H1571.93C1570.79 179 1570.25 178.28 1570.11 177.28H1570.01C1569.59 178.56 1568.49 179.24 1567.01 179.24C1564.85 179.24 1563.59 178.04 1563.59 176.14C1563.59 174.14 1565.05 173.06 1568.01 173.06H1569.97V172.12C1569.97 170.74 1569.23 169.96 1567.67 169.96C1566.45 169.96 1565.67 170.56 1565.13 171.44L1564.01 170.42C1564.63 169.3 1565.85 168.4 1567.77 168.4C1570.35 168.4 1571.83 169.72 1571.83 171.96V177.42H1572.99V179ZM1567.43 177.74C1568.89 177.74 1569.97 177 1569.97 175.96V174.36H1567.99C1566.29 174.36 1565.53 174.88 1565.53 175.84V176.24C1565.53 177.2 1566.27 177.74 1567.43 177.74ZM1577.67 179H1575.81V168.64H1577.67V170.62H1577.77C1578.11 169.6 1579.03 168.64 1580.69 168.64H1581.31V170.5H1580.39C1578.67 170.5 1577.67 171.18 1577.67 172.2V179ZM1592.38 180.06C1592.38 182.2 1590.74 183.24 1587.24 183.24C1583.94 183.24 1582.62 182.32 1582.62 180.72C1582.62 179.6 1583.26 178.98 1584.32 178.72V178.5C1583.66 178.24 1583.3 177.72 1583.3 176.98C1583.3 175.94 1584.08 175.42 1585.1 175.18V175.1C1583.88 174.52 1583.18 173.38 1583.18 171.96C1583.18 169.86 1584.7 168.4 1587.18 168.4C1587.9 168.4 1588.54 168.54 1589.1 168.76V168.54C1589.1 167.68 1589.48 167.12 1590.36 167.12H1591.94V168.68H1589.9V169.24C1590.74 169.86 1591.2 170.82 1591.2 171.96C1591.2 174.06 1589.68 175.5 1587.18 175.5C1586.78 175.5 1586.36 175.46 1586.02 175.38C1585.42 175.56 1584.84 175.9 1584.84 176.48C1584.84 177.08 1585.42 177.26 1586.36 177.26H1588.72C1591.28 177.26 1592.38 178.32 1592.38 180.06ZM1590.64 180.24C1590.64 179.46 1590.12 178.96 1588.6 178.96H1585.12C1584.54 179.26 1584.28 179.7 1584.28 180.28C1584.28 181.14 1584.9 181.82 1586.52 181.82H1587.92C1589.68 181.82 1590.64 181.3 1590.64 180.24ZM1587.2 174.1C1588.52 174.1 1589.34 173.48 1589.34 172.22V171.7C1589.34 170.44 1588.52 169.82 1587.2 169.82C1585.88 169.82 1585.06 170.44 1585.06 171.7V172.22C1585.06 173.48 1585.88 174.1 1587.2 174.1ZM1598.59 179.24C1595.71 179.24 1593.89 177.1 1593.89 173.82C1593.89 170.54 1595.71 168.4 1598.59 168.4C1601.49 168.4 1603.13 170.6 1603.13 173.5V174.28H1595.83V174.7C1595.83 176.42 1596.89 177.66 1598.75 177.66C1600.05 177.66 1600.99 177.04 1601.55 175.98L1602.75 177C1602.03 178.34 1600.53 179.24 1598.59 179.24ZM1598.59 169.9C1596.97 169.9 1595.83 171.14 1595.83 172.84V172.98H1601.15V172.78C1601.15 171.06 1600.15 169.9 1598.59 169.9ZM1610.76 179H1608.8C1607.52 179 1606.84 178.24 1606.84 177.04V170.22H1605.18V168.64H1606.1C1606.8 168.64 1607.02 168.38 1607.02 167.68V165.78H1608.7V168.64H1610.92V170.22H1608.7V177.42H1610.76V179ZM1623.26 179.24C1620.3 179.24 1618.6 177.14 1618.6 173.82C1618.6 170.5 1620.3 168.4 1623.26 168.4C1625.3 168.4 1626.58 169.4 1627.18 170.88L1625.64 171.64C1625.3 170.62 1624.46 170 1623.26 170C1621.48 170 1620.58 171.22 1620.58 172.92V174.72C1620.58 176.42 1621.48 177.64 1623.26 177.64C1624.52 177.64 1625.38 177 1625.9 175.88L1627.26 176.72C1626.6 178.28 1625.24 179.24 1623.26 179.24ZM1633.37 179H1631.97C1630.69 179 1630.03 178.24 1630.03 177.1V164.2H1631.89V177.42H1633.37V179ZM1642.54 179V177.3H1642.44C1642.06 178.3 1641.26 179.24 1639.54 179.24C1637.42 179.24 1636.1 177.78 1636.1 175.26V168.64H1637.96V174.98C1637.96 176.72 1638.7 177.62 1640.16 177.62C1641.34 177.62 1642.54 177.02 1642.54 175.72V168.64H1644.4V179H1642.54ZM1651.46 179.24C1649.54 179.24 1648.28 178.46 1647.32 177.24L1648.58 176.16C1649.36 177.14 1650.32 177.7 1651.58 177.7C1652.9 177.7 1653.62 177.12 1653.62 176.16C1653.62 175.4 1653.22 174.86 1651.96 174.68L1651.08 174.54C1649.1 174.26 1647.72 173.44 1647.72 171.52C1647.72 169.48 1649.3 168.4 1651.48 168.4C1653.24 168.4 1654.34 169.02 1655.22 170.06L1654.04 171.18C1653.54 170.52 1652.66 169.94 1651.42 169.94C1650.16 169.94 1649.52 170.52 1649.52 171.4C1649.52 172.32 1650.12 172.7 1651.32 172.88L1652.2 173.02C1654.48 173.36 1655.42 174.36 1655.42 175.96C1655.42 177.98 1653.9 179.24 1651.46 179.24ZM1663.05 179H1661.09C1659.81 179 1659.13 178.24 1659.13 177.04V170.22H1657.47V168.64H1658.39C1659.09 168.64 1659.31 168.38 1659.31 167.68V165.78H1660.99V168.64H1663.21V170.22H1660.99V177.42H1663.05V179ZM1670.18 179.24C1667.3 179.24 1665.48 177.1 1665.48 173.82C1665.48 170.54 1667.3 168.4 1670.18 168.4C1673.08 168.4 1674.72 170.6 1674.72 173.5V174.28H1667.42V174.7C1667.42 176.42 1668.48 177.66 1670.34 177.66C1671.64 177.66 1672.58 177.04 1673.14 175.98L1674.34 177C1673.62 178.34 1672.12 179.24 1670.18 179.24ZM1670.18 169.9C1668.56 169.9 1667.42 171.14 1667.42 172.84V172.98H1672.74V172.78C1672.74 171.06 1671.74 169.9 1670.18 169.9ZM1679.72 179H1677.86V168.64H1679.72V170.62H1679.82C1680.16 169.6 1681.08 168.64 1682.74 168.64H1683.36V170.5H1682.44C1680.72 170.5 1679.72 171.18 1679.72 172.2V179ZM1697.84 179V177.3H1697.76C1697.28 178.58 1696.2 179.24 1694.78 179.24C1692.18 179.24 1690.62 177.18 1690.62 173.82C1690.62 170.46 1692.18 168.4 1694.78 168.4C1696.2 168.4 1697.28 169.06 1697.76 170.34H1697.84V164.2H1699.7V179H1697.84ZM1695.32 177.62C1696.72 177.62 1697.84 176.82 1697.84 175.72V171.92C1697.84 170.82 1696.72 170.02 1695.32 170.02C1693.66 170.02 1692.6 171.2 1692.6 172.94V174.7C1692.6 176.44 1693.66 177.62 1695.32 177.62ZM1704.52 166.48C1703.74 166.48 1703.4 166.06 1703.4 165.46V165.18C1703.4 164.58 1703.74 164.16 1704.52 164.16C1705.3 164.16 1705.64 164.58 1705.64 165.18V165.46C1705.64 166.06 1705.3 166.48 1704.52 166.48ZM1703.58 179V168.64H1705.44V179H1703.58ZM1711.18 179H1709.32V168.64H1711.18V170.62H1711.28C1711.62 169.6 1712.54 168.64 1714.2 168.64H1714.82V170.5H1713.9C1712.18 170.5 1711.18 171.18 1711.18 172.2V179ZM1721.28 179.24C1718.4 179.24 1716.58 177.1 1716.58 173.82C1716.58 170.54 1718.4 168.4 1721.28 168.4C1724.18 168.4 1725.82 170.6 1725.82 173.5V174.28H1718.52V174.7C1718.52 176.42 1719.58 177.66 1721.44 177.66C1722.74 177.66 1723.68 177.04 1724.24 175.98L1725.44 177C1724.72 178.34 1723.22 179.24 1721.28 179.24ZM1721.28 169.9C1719.66 169.9 1718.52 171.14 1718.52 172.84V172.98H1723.84V172.78C1723.84 171.06 1722.84 169.9 1721.28 169.9ZM1732.88 179.24C1729.92 179.24 1728.22 177.14 1728.22 173.82C1728.22 170.5 1729.92 168.4 1732.88 168.4C1734.92 168.4 1736.2 169.4 1736.8 170.88L1735.26 171.64C1734.92 170.62 1734.08 170 1732.88 170C1731.1 170 1730.2 171.22 1730.2 172.92V174.72C1730.2 176.42 1731.1 177.64 1732.88 177.64C1734.14 177.64 1735 177 1735.52 175.88L1736.88 176.72C1736.22 178.28 1734.86 179.24 1732.88 179.24ZM1744.16 179H1742.2C1740.92 179 1740.24 178.24 1740.24 177.04V170.22H1738.58V168.64H1739.5C1740.2 168.64 1740.42 168.38 1740.42 167.68V165.78H1742.1V168.64H1744.32V170.22H1742.1V177.42H1744.16V179ZM1750.74 179H1749.34C1748.06 179 1747.4 178.24 1747.4 177.1V164.2H1749.26V177.42H1750.74V179ZM1757.45 175.26L1759.77 168.64H1761.57L1757.07 181.26C1756.59 182.56 1756.09 183 1754.51 183H1753.49V181.42H1755.19L1755.89 179.42L1752.05 168.64H1753.91L1756.21 175.26L1756.75 177.2H1756.85L1757.45 175.26Z" fill="white"/>
<path d="M1016 439L1006 433.226V444.774L1016 439ZM447 439V440H1007V439V438H447V439Z" fill="#D02670"/>
<path d="M1016 512L1006 517.774V506.226L1016 512ZM1007 512V513H446.5V512V511H1007V512Z" fill="#0F62FE"/>
<path d="M471.49 413H468.7L463.6 392.06H466.27L468.52 402.14L470.26 409.97H470.32L472.27 402.14L474.91 392.06H477.79L480.34 402.14L482.29 409.94H482.38L484.18 402.14L486.55 392.06H489.13L483.76 413H480.97L478.24 402.56L476.32 394.88H476.26L474.28 402.56L471.49 413ZM495.276 413H492.876V397.52H495.276V400.37H495.426C495.966 398.9 497.376 397.52 499.896 397.52H500.826V399.92H499.416C496.836 399.92 495.276 401.03 495.276 402.5V413ZM505.991 393.89C504.971 393.89 504.521 393.35 504.521 392.54V392.15C504.521 391.34 504.971 390.8 505.991 390.8C507.011 390.8 507.461 391.34 507.461 392.15V392.54C507.461 393.35 507.011 393.89 505.991 393.89ZM504.791 413V397.52H507.191V413H504.791ZM519.611 413H516.611C514.961 413 514.061 411.95 514.061 410.45V399.62H511.511V397.52H512.951C513.971 397.52 514.301 397.16 514.301 396.11V393.23H516.461V397.52H519.851V399.62H516.461V410.9H519.611V413ZM530.312 413.36C526.112 413.36 523.352 410.18 523.352 405.26C523.352 400.34 526.112 397.16 530.312 397.16C534.452 397.16 537.002 400.34 537.002 404.72V405.86H525.872V406.58C525.872 409.25 527.582 411.26 530.462 411.26C532.412 411.26 533.912 410.3 534.722 408.59L536.432 409.82C535.442 411.92 533.222 413.36 530.312 413.36ZM530.312 399.17C527.702 399.17 525.872 401.15 525.872 403.85V404.06H534.422V403.73C534.422 401 532.772 399.17 530.312 399.17ZM546.507 413.36C543.657 413.36 541.767 412.16 540.387 410.33L542.097 408.95C543.297 410.45 544.737 411.32 546.687 411.32C548.727 411.32 549.927 410.39 549.927 408.8C549.927 407.6 549.267 406.67 547.227 406.37L545.997 406.19C543.147 405.77 541.017 404.6 541.017 401.72C541.017 398.66 543.387 397.16 546.537 397.16C549.027 397.16 550.677 398.09 551.937 399.65L550.347 401.09C549.657 400.13 548.337 399.2 546.357 399.2C544.377 399.2 543.327 400.13 543.327 401.6C543.327 403.1 544.377 403.7 546.297 404L547.497 404.18C550.917 404.69 552.237 406.19 552.237 408.53C552.237 411.53 550.047 413.36 546.507 413.36Z" fill="#D02670"/>
<path d="M137.77 424.36C132.13 424.36 128.5 420.76 128.5 413.68C128.5 406.6 132.13 402.7 137.77 402.7C141.61 402.7 144.07 404.26 145.6 407.62L141.67 409.66C141.13 407.92 140.02 406.75 137.77 406.75C135.1 406.75 133.33 408.55 133.33 411.85V415.21C133.33 418.51 135.1 420.31 137.77 420.31C140.02 420.31 141.31 418.9 141.94 417.19L145.66 419.35C144.1 422.53 141.61 424.36 137.77 424.36ZM155.931 424H153.921C150.891 424 149.511 422.47 149.511 419.68V401.8H153.951V420.55H155.931V424ZM161.713 406.57C159.913 406.57 159.133 405.64 159.133 404.38V403.72C159.133 402.46 159.913 401.53 161.713 401.53C163.513 401.53 164.293 402.46 164.293 403.72V404.38C164.293 405.64 163.513 406.57 161.713 406.57ZM159.493 424V408.25H163.933V424H159.493ZM175.547 424.36C170.717 424.36 167.987 421.15 167.987 416.11C167.987 411.13 170.627 407.89 175.367 407.89C180.587 407.89 182.687 411.67 182.687 415.93V417.25H172.577V417.49C172.577 419.56 173.687 420.88 176.057 420.88C177.917 420.88 178.937 420.01 179.927 418.99L182.147 421.75C180.737 423.37 178.427 424.36 175.547 424.36ZM175.457 411.16C173.687 411.16 172.577 412.45 172.577 414.4V414.64H178.097V414.37C178.097 412.45 177.227 411.16 175.457 411.16ZM191.163 424H186.723V408.25H191.163V410.92H191.343C191.913 409.27 193.233 407.89 195.723 407.89C198.933 407.89 200.643 410.17 200.643 414.13V424H196.203V414.49C196.203 412.48 195.633 411.49 194.013 411.49C192.573 411.49 191.163 412.24 191.163 413.8V424ZM213.654 424H211.014C207.954 424 206.334 422.41 206.334 419.41V411.7H204.114V408.25H205.224C206.424 408.25 206.784 407.65 206.784 406.57V403.99H210.774V408.25H213.894V411.7H210.774V420.55H213.654V424ZM146.95 454H142.21L140.71 449.02H133.72L132.22 454H127.6L134.5 433.06H140.14L146.95 454ZM139.6 445.15L137.26 437.2H137.11L134.8 445.15H139.6ZM150.507 460V438.25H154.947V440.89H155.097C155.547 439.15 157.287 437.89 159.327 437.89C163.317 437.89 165.387 440.77 165.387 446.11C165.387 451.45 163.317 454.36 159.327 454.36C157.287 454.36 155.547 453.07 155.097 451.36H154.947V460H150.507ZM157.857 450.76C159.537 450.76 160.767 449.47 160.767 447.49V444.76C160.767 442.78 159.537 441.49 157.857 441.49C156.177 441.49 154.947 442.36 154.947 443.8V448.45C154.947 449.89 156.177 450.76 157.857 450.76ZM169.659 460V438.25H174.099V440.89H174.249C174.699 439.15 176.439 437.89 178.479 437.89C182.469 437.89 184.539 440.77 184.539 446.11C184.539 451.45 182.469 454.36 178.479 454.36C176.439 454.36 174.699 453.07 174.249 451.36H174.099V460H169.659ZM177.009 450.76C178.689 450.76 179.919 449.47 179.919 447.49V444.76C179.919 442.78 178.689 441.49 177.009 441.49C175.329 441.49 174.099 442.36 174.099 443.8V448.45C174.099 449.89 175.329 450.76 177.009 450.76ZM195.231 454H193.221C190.191 454 188.811 452.47 188.811 449.68V431.8H193.251V450.55H195.231V454ZM201.013 436.57C199.213 436.57 198.433 435.64 198.433 434.38V433.72C198.433 432.46 199.213 431.53 201.013 431.53C202.813 431.53 203.593 432.46 203.593 433.72V434.38C203.593 435.64 202.813 436.57 201.013 436.57ZM198.793 454V438.25H203.233V454H198.793ZM214.637 454.36C209.897 454.36 207.287 451.15 207.287 446.11C207.287 441.07 209.897 437.89 214.637 437.89C217.817 437.89 220.007 439.42 220.937 442L217.337 443.56C217.067 442.36 216.197 441.4 214.637 441.4C212.837 441.4 211.907 442.69 211.907 444.67V447.61C211.907 449.59 212.837 450.85 214.637 450.85C216.407 450.85 217.127 449.77 217.577 448.51L221.027 450.01C219.977 453.01 217.727 454.36 214.637 454.36ZM238.775 454H236.315C234.725 454 233.585 452.92 233.315 451.24H233.135C232.655 453.28 230.915 454.36 228.515 454.36C225.365 454.36 223.625 452.5 223.625 449.77C223.625 446.44 226.205 444.85 230.375 444.85H232.865V443.86C232.865 442.33 232.115 441.37 230.255 441.37C228.485 441.37 227.555 442.27 226.865 443.23L224.225 440.89C225.485 439.03 227.285 437.89 230.585 437.89C235.025 437.89 237.305 439.93 237.305 443.65V450.55H238.775V454ZM230.165 451.27C231.635 451.27 232.865 450.67 232.865 449.23V447.37H230.705C228.995 447.37 228.095 448 228.095 449.14V449.59C228.095 450.73 228.845 451.27 230.165 451.27ZM250.639 454H247.999C244.939 454 243.319 452.41 243.319 449.41V441.7H241.099V438.25H242.209C243.409 438.25 243.769 437.65 243.769 436.57V433.99H247.759V438.25H250.879V441.7H247.759V450.55H250.639V454ZM257.084 436.57C255.284 436.57 254.504 435.64 254.504 434.38V433.72C254.504 432.46 255.284 431.53 257.084 431.53C258.884 431.53 259.664 432.46 259.664 433.72V434.38C259.664 435.64 258.884 436.57 257.084 436.57ZM254.864 454V438.25H259.304V454H254.864ZM270.738 454.36C266.118 454.36 263.358 451.18 263.358 446.11C263.358 441.04 266.118 437.89 270.738 437.89C275.358 437.89 278.118 441.04 278.118 446.11C278.118 451.18 275.358 454.36 270.738 454.36ZM270.738 450.85C272.478 450.85 273.498 449.71 273.498 447.73V444.52C273.498 442.54 272.478 441.4 270.738 441.4C268.998 441.4 267.978 442.54 267.978 444.52V447.73C267.978 449.71 268.998 450.85 270.738 450.85ZM286.621 454H282.181V438.25H286.621V440.92H286.801C287.371 439.27 288.691 437.89 291.181 437.89C294.391 437.89 296.101 440.17 296.101 444.13V454H291.661V444.49C291.661 442.48 291.091 441.49 289.471 441.49C288.031 441.49 286.621 442.24 286.621 443.8V454ZM306.292 454.36C303.262 454.36 301.282 453.34 299.662 451.54L302.272 448.9C303.382 450.13 304.732 450.91 306.442 450.91C308.182 450.91 308.782 450.34 308.782 449.41C308.782 448.63 308.302 448.24 307.192 448.09L305.482 447.88C301.912 447.43 300.172 445.87 300.172 443.02C300.172 439.99 302.542 437.89 306.292 437.89C309.592 437.89 311.122 438.79 312.712 440.35L310.162 442.96C309.172 441.97 307.852 441.34 306.532 441.34C305.032 441.34 304.432 441.88 304.432 442.66C304.432 443.5 304.792 443.95 306.082 444.13L307.852 444.37C311.272 444.82 313.042 446.38 313.042 449.11C313.042 452.14 310.342 454.36 306.292 454.36Z" fill="#161616"/>
<path d="M470.31 484V493H467.79V472.06H476.13C479.79 472.06 481.98 474.19 481.98 478C481.98 481.06 480.51 483.13 477.78 483.76L482.58 493H479.73L475.2 484H470.31ZM470.31 481.84H476.13C478.11 481.84 479.28 480.76 479.28 478.84V477.28C479.28 475.36 478.11 474.28 476.13 474.28H470.31V481.84ZM493.02 493.36C488.82 493.36 486.06 490.18 486.06 485.26C486.06 480.34 488.82 477.16 493.02 477.16C497.16 477.16 499.71 480.34 499.71 484.72V485.86H488.58V486.58C488.58 489.25 490.29 491.26 493.17 491.26C495.12 491.26 496.62 490.3 497.43 488.59L499.14 489.82C498.15 491.92 495.93 493.36 493.02 493.36ZM493.02 479.17C490.41 479.17 488.58 481.15 488.58 483.85V484.06H497.13V483.73C497.13 481 495.48 479.17 493.02 479.17ZM517.165 493H515.815C514.045 493 513.325 491.92 513.145 490.48H512.995C512.335 492.37 510.685 493.36 508.525 493.36C505.255 493.36 503.335 491.56 503.335 488.68C503.335 485.77 505.435 484.15 509.935 484.15H512.995V482.62C512.995 480.43 511.795 479.23 509.335 479.23C507.475 479.23 506.245 480.13 505.405 481.54L503.965 480.19C504.805 478.54 506.665 477.16 509.455 477.16C513.175 477.16 515.395 479.11 515.395 482.38V490.9H517.165V493ZM508.915 491.32C511.285 491.32 512.995 490.09 512.995 488.5V485.95H509.815C507.085 485.95 505.855 486.79 505.855 488.29V488.92C505.855 490.45 507.055 491.32 508.915 491.32ZM531.39 493V490.48H531.27C530.34 492.4 528.87 493.36 526.74 493.36C522.87 493.36 520.44 490.21 520.44 485.26C520.44 480.31 522.87 477.16 526.74 477.16C528.87 477.16 530.46 478.09 531.27 480.04H531.39V470.8H533.79V493H531.39ZM527.4 491.2C529.59 491.2 531.39 490.06 531.39 488.05V482.29C531.39 480.58 529.59 479.32 527.4 479.32C524.7 479.32 523.02 481.18 523.02 483.94V486.58C523.02 489.34 524.7 491.2 527.4 491.2ZM544.443 493.36C541.593 493.36 539.703 492.16 538.323 490.33L540.033 488.95C541.233 490.45 542.673 491.32 544.623 491.32C546.663 491.32 547.863 490.39 547.863 488.8C547.863 487.6 547.203 486.67 545.163 486.37L543.933 486.19C541.083 485.77 538.953 484.6 538.953 481.72C538.953 478.66 541.323 477.16 544.473 477.16C546.963 477.16 548.613 478.09 549.873 479.65L548.283 481.09C547.593 480.13 546.273 479.2 544.293 479.2C542.313 479.2 541.263 480.13 541.263 481.6C541.263 483.1 542.313 483.7 544.233 484L545.433 484.18C548.853 484.69 550.173 486.19 550.173 488.53C550.173 491.53 547.983 493.36 544.443 493.36Z" fill="#0F62FE"/>
<rect x="95.5" y="366.5" width="351" height="476" rx="15.5" stroke="#161616"/>
<rect x="1016.5" y="366.5" width="396" height="217" rx="15.5" stroke="#0F62FE"/>
<path d="M1182.52 448.984H1176.47V467H1171.61V448.984H1165.56V444.664H1182.52V448.984ZM1199.34 467H1196.72C1195.02 467 1193.81 465.848 1193.52 464.056H1193.33C1192.82 466.232 1190.96 467.384 1188.4 467.384C1185.04 467.384 1183.18 465.4 1183.18 462.488C1183.18 458.936 1185.94 457.24 1190.38 457.24H1193.04V456.184C1193.04 454.552 1192.24 453.528 1190.26 453.528C1188.37 453.528 1187.38 454.488 1186.64 455.512L1183.82 453.016C1185.17 451.032 1187.09 449.816 1190.61 449.816C1195.34 449.816 1197.78 451.992 1197.78 455.96V463.32H1199.34V467ZM1190.16 464.088C1191.73 464.088 1193.04 463.448 1193.04 461.912V459.928H1190.74C1188.91 459.928 1187.95 460.6 1187.95 461.816V462.296C1187.95 463.512 1188.75 464.088 1190.16 464.088ZM1208.22 467H1203.48V450.2H1208.22V453.848H1208.38C1208.76 451.992 1210.04 450.2 1212.67 450.2H1213.5V454.616H1212.31C1209.56 454.616 1208.22 455.224 1208.22 457.176V467ZM1232.49 468.216C1232.49 471.768 1230.25 473.784 1223.41 473.784C1217.58 473.784 1215.44 472.312 1215.44 469.88C1215.44 468.024 1216.62 466.936 1218.57 466.68V466.328C1216.97 466.04 1216.14 464.824 1216.14 463.384C1216.14 461.624 1217.71 460.728 1219.28 460.408V460.28C1217.26 459.352 1216.27 457.656 1216.27 455.48C1216.27 452.088 1218.64 449.816 1223.47 449.816C1224.53 449.816 1225.49 449.912 1226.32 450.136V449.496C1226.32 447.736 1227.25 446.968 1228.85 446.968H1231.5V450.488H1227.79V450.68C1229.74 451.608 1230.67 453.336 1230.67 455.48C1230.67 458.84 1228.33 461.048 1223.47 461.048C1222.35 461.048 1221.36 460.92 1220.49 460.696C1220.05 460.984 1219.76 461.464 1219.76 462.04C1219.76 462.84 1220.33 463.32 1221.77 463.32H1226.64C1230.73 463.32 1232.49 465.112 1232.49 468.216ZM1228.05 468.856C1228.05 467.896 1227.34 467.352 1225.45 467.352H1219.69C1219.28 467.768 1219.09 468.344 1219.09 468.856C1219.09 470.072 1220.05 470.648 1222.61 470.648H1224.53C1227.09 470.648 1228.05 470.072 1228.05 468.856ZM1223.47 457.944C1225.33 457.944 1226.25 457.112 1226.25 455.64V455.256C1226.25 453.784 1225.33 452.952 1223.47 452.952C1221.61 452.952 1220.69 453.784 1220.69 455.256V455.64C1220.69 457.112 1221.61 457.944 1223.47 457.944ZM1242.38 467.384C1237.23 467.384 1234.32 463.96 1234.32 458.584C1234.32 453.272 1237.13 449.816 1242.19 449.816C1247.76 449.816 1250 453.848 1250 458.392V459.8H1239.21V460.056C1239.21 462.264 1240.4 463.672 1242.92 463.672C1244.91 463.672 1246 462.744 1247.05 461.656L1249.42 464.6C1247.92 466.328 1245.45 467.384 1242.38 467.384ZM1242.28 453.304C1240.4 453.304 1239.21 454.68 1239.21 456.76V457.016H1245.1V456.728C1245.1 454.68 1244.17 453.304 1242.28 453.304ZM1263 467H1260.19C1256.92 467 1255.2 465.304 1255.2 462.104V453.88H1252.83V450.2H1254.01C1255.29 450.2 1255.68 449.56 1255.68 448.408V445.656H1259.93V450.2H1263.26V453.88H1259.93V463.32H1263V467ZM1169.36 507.384C1163.34 507.384 1159.47 503.544 1159.47 495.992C1159.47 488.44 1163.34 484.28 1169.36 484.28C1173.45 484.28 1176.08 485.944 1177.71 489.528L1173.52 491.704C1172.94 489.848 1171.76 488.6 1169.36 488.6C1166.51 488.6 1164.62 490.52 1164.62 494.04V497.624C1164.62 501.144 1166.51 503.064 1169.36 503.064C1171.76 503.064 1173.13 501.56 1173.81 499.736L1177.77 502.04C1176.11 505.432 1173.45 507.384 1169.36 507.384ZM1188.73 507H1186.59C1183.35 507 1181.88 505.368 1181.88 502.392V483.32H1186.62V503.32H1188.73V507ZM1202.45 507V504.184H1202.29C1201.71 505.88 1200.34 507.384 1197.59 507.384C1194.16 507.384 1192.34 504.984 1192.34 500.76V490.2H1197.07V500.344C1197.07 502.392 1197.75 503.544 1199.47 503.544C1200.95 503.544 1202.45 502.712 1202.45 501.112V490.2H1207.19V507H1202.45ZM1218.25 507.384C1215.02 507.384 1212.9 506.296 1211.18 504.376L1213.96 501.56C1215.14 502.872 1216.58 503.704 1218.41 503.704C1220.26 503.704 1220.9 503.096 1220.9 502.104C1220.9 501.272 1220.39 500.856 1219.21 500.696L1217.38 500.472C1213.58 499.992 1211.72 498.328 1211.72 495.288C1211.72 492.056 1214.25 489.816 1218.25 489.816C1221.77 489.816 1223.4 490.776 1225.1 492.44L1222.38 495.224C1221.32 494.168 1219.91 493.496 1218.5 493.496C1216.9 493.496 1216.26 494.072 1216.26 494.904C1216.26 495.8 1216.65 496.28 1218.02 496.472L1219.91 496.728C1223.56 497.208 1225.45 498.872 1225.45 501.784C1225.45 505.016 1222.57 507.384 1218.25 507.384ZM1238.09 507H1235.27C1232.01 507 1230.28 505.304 1230.28 502.104V493.88H1227.91V490.2H1229.1C1230.38 490.2 1230.76 489.56 1230.76 488.408V485.656H1235.02V490.2H1238.35V493.88H1235.02V503.32H1238.09V507ZM1249.48 507.384C1244.33 507.384 1241.42 503.96 1241.42 498.584C1241.42 493.272 1244.23 489.816 1249.29 489.816C1254.86 489.816 1257.1 493.848 1257.1 498.392V499.8H1246.31V500.056C1246.31 502.264 1247.5 503.672 1250.02 503.672C1252.01 503.672 1253.1 502.744 1254.15 501.656L1256.52 504.6C1255.02 506.328 1252.55 507.384 1249.48 507.384ZM1249.38 493.304C1247.5 493.304 1246.31 494.68 1246.31 496.76V497.016H1252.2V496.728C1252.2 494.68 1251.27 493.304 1249.38 493.304ZM1266.14 507H1261.4V490.2H1266.14V493.848H1266.3C1266.68 491.992 1267.96 490.2 1270.58 490.2H1271.42V494.616H1270.23C1267.48 494.616 1266.14 495.224 1266.14 497.176V507Z" fill="#161616"/>
<rect x="1016.5" y="625.5" width="396" height="217" rx="15.5" stroke="#0F62FE" stroke-dasharray="12 12"/>
<path d="M1178.14 726.384C1172.22 726.384 1168.31 722.416 1168.31 714.832C1168.31 707.248 1172.22 703.28 1178.14 703.28C1184.06 703.28 1187.96 707.248 1187.96 714.832C1187.96 722.416 1184.06 726.384 1178.14 726.384ZM1178.14 722.064C1181.05 722.064 1182.81 720.048 1182.81 716.496V713.168C1182.81 709.616 1181.05 707.6 1178.14 707.6C1175.23 707.6 1173.47 709.616 1173.47 713.168V716.496C1173.47 720.048 1175.23 722.064 1178.14 722.064ZM1197.46 726H1192.73V709.2H1197.46V712.848H1197.62C1198.01 710.992 1199.29 709.2 1201.91 709.2H1202.74V713.616H1201.56C1198.81 713.616 1197.46 714.224 1197.46 716.176V726ZM1208.99 707.408C1207.07 707.408 1206.24 706.416 1206.24 705.072V704.368C1206.24 703.024 1207.07 702.032 1208.99 702.032C1210.91 702.032 1211.74 703.024 1211.74 704.368V705.072C1211.74 706.416 1210.91 707.408 1208.99 707.408ZM1206.62 726V709.2H1211.36V726H1206.62ZM1232.29 727.216C1232.29 730.768 1230.05 732.784 1223.2 732.784C1217.38 732.784 1215.24 731.312 1215.24 728.88C1215.24 727.024 1216.42 725.936 1218.37 725.68V725.328C1216.77 725.04 1215.94 723.824 1215.94 722.384C1215.94 720.624 1217.51 719.728 1219.08 719.408V719.28C1217.06 718.352 1216.07 716.656 1216.07 714.48C1216.07 711.088 1218.44 708.816 1223.27 708.816C1224.32 708.816 1225.28 708.912 1226.12 709.136V708.496C1226.12 706.736 1227.04 705.968 1228.64 705.968H1231.3V709.488H1227.59V709.68C1229.54 710.608 1230.47 712.336 1230.47 714.48C1230.47 717.84 1228.13 720.048 1223.27 720.048C1222.15 720.048 1221.16 719.92 1220.29 719.696C1219.84 719.984 1219.56 720.464 1219.56 721.04C1219.56 721.84 1220.13 722.32 1221.57 722.32H1226.44C1230.53 722.32 1232.29 724.112 1232.29 727.216ZM1227.84 727.856C1227.84 726.896 1227.14 726.352 1225.25 726.352H1219.49C1219.08 726.768 1218.88 727.344 1218.88 727.856C1218.88 729.072 1219.84 729.648 1222.4 729.648H1224.32C1226.88 729.648 1227.84 729.072 1227.84 727.856ZM1223.27 716.944C1225.12 716.944 1226.05 716.112 1226.05 714.64V714.256C1226.05 712.784 1225.12 711.952 1223.27 711.952C1221.41 711.952 1220.48 712.784 1220.48 714.256V714.64C1220.48 716.112 1221.41 716.944 1223.27 716.944ZM1237.72 707.408C1235.8 707.408 1234.97 706.416 1234.97 705.072V704.368C1234.97 703.024 1235.8 702.032 1237.72 702.032C1239.64 702.032 1240.48 703.024 1240.48 704.368V705.072C1240.48 706.416 1239.64 707.408 1237.72 707.408ZM1235.36 726V709.2H1240.09V726H1235.36ZM1250.21 726H1245.47V709.2H1250.21V712.048H1250.4C1251.01 710.288 1252.42 708.816 1255.07 708.816C1258.5 708.816 1260.32 711.248 1260.32 715.472V726H1255.58V715.856C1255.58 713.712 1254.98 712.656 1253.25 712.656C1251.71 712.656 1250.21 713.456 1250.21 715.12V726ZM1169.36 766.384C1163.34 766.384 1159.47 762.544 1159.47 754.992C1159.47 747.44 1163.34 743.28 1169.36 743.28C1173.45 743.28 1176.08 744.944 1177.71 748.528L1173.52 750.704C1172.94 748.848 1171.76 747.6 1169.36 747.6C1166.51 747.6 1164.62 749.52 1164.62 753.04V756.624C1164.62 760.144 1166.51 762.064 1169.36 762.064C1171.76 762.064 1173.13 760.56 1173.81 758.736L1177.77 761.04C1176.11 764.432 1173.45 766.384 1169.36 766.384ZM1188.73 766H1186.59C1183.35 766 1181.88 764.368 1181.88 761.392V742.32H1186.62V762.32H1188.73V766ZM1202.45 766V763.184H1202.29C1201.71 764.88 1200.34 766.384 1197.59 766.384C1194.16 766.384 1192.34 763.984 1192.34 759.76V749.2H1197.07V759.344C1197.07 761.392 1197.75 762.544 1199.47 762.544C1200.95 762.544 1202.45 761.712 1202.45 760.112V749.2H1207.19V766H1202.45ZM1218.25 766.384C1215.02 766.384 1212.9 765.296 1211.18 763.376L1213.96 760.56C1215.14 761.872 1216.58 762.704 1218.41 762.704C1220.26 762.704 1220.9 762.096 1220.9 761.104C1220.9 760.272 1220.39 759.856 1219.21 759.696L1217.38 759.472C1213.58 758.992 1211.72 757.328 1211.72 754.288C1211.72 751.056 1214.25 748.816 1218.25 748.816C1221.77 748.816 1223.4 749.776 1225.1 751.44L1222.38 754.224C1221.32 753.168 1219.91 752.496 1218.5 752.496C1216.9 752.496 1216.26 753.072 1216.26 753.904C1216.26 754.8 1216.65 755.28 1218.02 755.472L1219.91 755.728C1223.56 756.208 1225.45 757.872 1225.45 760.784C1225.45 764.016 1222.57 766.384 1218.25 766.384ZM1238.09 766H1235.27C1232.01 766 1230.28 764.304 1230.28 761.104V752.88H1227.91V749.2H1229.1C1230.38 749.2 1230.76 748.56 1230.76 747.408V744.656H1235.02V749.2H1238.35V752.88H1235.02V762.32H1238.09V766ZM1249.48 766.384C1244.33 766.384 1241.42 762.96 1241.42 757.584C1241.42 752.272 1244.23 748.816 1249.29 748.816C1254.86 748.816 1257.1 752.848 1257.1 757.392V758.8H1246.31V759.056C1246.31 761.264 1247.5 762.672 1250.02 762.672C1252.01 762.672 1253.1 761.744 1254.15 760.656L1256.52 763.6C1255.02 765.328 1252.55 766.384 1249.48 766.384ZM1249.38 752.304C1247.5 752.304 1246.31 753.68 1246.31 755.76V756.016H1252.2V755.728C1252.2 753.68 1251.27 752.304 1249.38 752.304ZM1266.14 766H1261.4V749.2H1266.14V752.848H1266.3C1266.68 750.992 1267.96 749.2 1270.58 749.2H1271.42V753.616H1270.23C1267.48 753.616 1266.14 754.224 1266.14 756.176V766Z" fill="#161616"/>
<rect x="1474" y="366" width="350" height="109" rx="16" fill="#0043CE"/>
<circle cx="1535" cy="420" r="16.25" stroke="white" stroke-width="1.5"/>
<path d="M1527 419.5L1533 425L1544 414" stroke="white" stroke-width="1.5" stroke-linecap="round"/>
<path d="M1566.47 428V412.644H1568.93L1573.33 420.916H1573.44L1577.87 412.644H1580.24V428H1578.44V415.064H1578.33L1577.03 417.638L1573.36 424.326L1569.68 417.638L1568.38 415.064H1568.27V428H1566.47ZM1585.69 413.986C1584.94 413.986 1584.61 413.59 1584.61 412.996V412.71C1584.61 412.116 1584.94 411.72 1585.69 411.72C1586.44 411.72 1586.77 412.116 1586.77 412.71V412.996C1586.77 413.59 1586.44 413.986 1585.69 413.986ZM1584.81 428V416.648H1586.57V428H1584.81ZM1600.54 429.254C1600.54 431.586 1598.69 432.664 1595.04 432.664C1591.5 432.664 1590.04 431.652 1590.04 429.87C1590.04 428.638 1590.73 427.978 1591.85 427.67V427.428C1591.21 427.12 1590.84 426.614 1590.84 425.844C1590.84 424.7 1591.65 424.15 1592.79 423.864V423.776C1591.45 423.138 1590.66 421.884 1590.66 420.3C1590.66 417.99 1592.35 416.384 1594.93 416.384C1595.74 416.384 1596.47 416.538 1597.08 416.824V416.626C1597.08 415.746 1597.46 415.108 1598.4 415.108H1600.1V416.648H1597.94V417.374C1598.76 418.078 1599.24 419.09 1599.24 420.3C1599.24 422.61 1597.55 424.216 1594.95 424.216C1594.58 424.216 1594.18 424.172 1593.85 424.106C1593.1 424.304 1592.35 424.678 1592.35 425.382C1592.35 426.064 1593.06 426.24 1594.09 426.24H1596.51C1599.33 426.24 1600.54 427.384 1600.54 429.254ZM1598.89 429.386C1598.89 428.484 1598.29 427.89 1596.53 427.89H1592.75C1592.02 428.22 1591.69 428.726 1591.69 429.43C1591.69 430.42 1592.38 431.234 1594.16 431.234H1595.79C1597.74 431.234 1598.89 430.618 1598.89 429.386ZM1594.95 422.808C1596.45 422.808 1597.39 422.104 1597.39 420.608V419.992C1597.39 418.496 1596.45 417.792 1594.95 417.792C1593.45 417.792 1592.51 418.496 1592.51 419.992V420.608C1592.51 422.104 1593.45 422.808 1594.95 422.808ZM1605.01 428H1603.25V416.648H1605.01V418.738H1605.12C1605.52 417.66 1606.55 416.648 1608.4 416.648H1609.08V418.408H1608.05C1606.15 418.408 1605.01 419.222 1605.01 420.3V428ZM1621.14 428H1620.15C1618.85 428 1618.33 427.208 1618.19 426.152H1618.08C1617.6 427.538 1616.39 428.264 1614.81 428.264C1612.41 428.264 1611 426.944 1611 424.832C1611 422.698 1612.54 421.51 1615.84 421.51H1618.08V420.388C1618.08 418.782 1617.2 417.902 1615.4 417.902C1614.04 417.902 1613.13 418.562 1612.52 419.596L1611.46 418.606C1612.08 417.396 1613.44 416.384 1615.49 416.384C1618.22 416.384 1619.84 417.814 1619.84 420.212V426.46H1621.14V428ZM1615.09 426.768C1616.83 426.768 1618.08 425.866 1618.08 424.7V422.83H1615.75C1613.75 422.83 1612.85 423.446 1612.85 424.546V425.008C1612.85 426.13 1613.73 426.768 1615.09 426.768ZM1629.02 428H1626.82C1625.61 428 1624.95 427.23 1624.95 426.13V418.188H1623.08V416.648H1624.14C1624.89 416.648 1625.13 416.384 1625.13 415.614V413.502H1626.71V416.648H1629.2V418.188H1626.71V426.46H1629.02V428ZM1633.57 413.986C1632.82 413.986 1632.49 413.59 1632.49 412.996V412.71C1632.49 412.116 1632.82 411.72 1633.57 411.72C1634.32 411.72 1634.65 412.116 1634.65 412.71V412.996C1634.65 413.59 1634.32 413.986 1633.57 413.986ZM1632.69 428V416.648H1634.45V428H1632.69ZM1643.14 428.264C1640.1 428.264 1638.01 425.932 1638.01 422.324C1638.01 418.716 1640.1 416.384 1643.14 416.384C1646.17 416.384 1648.26 418.716 1648.26 422.324C1648.26 425.932 1646.17 428.264 1643.14 428.264ZM1643.14 426.702C1645.03 426.702 1646.37 425.536 1646.37 423.138V421.51C1646.37 419.112 1645.03 417.946 1643.14 417.946C1641.25 417.946 1639.9 419.112 1639.9 421.51V423.138C1639.9 425.536 1641.25 426.702 1643.14 426.702ZM1653.58 428H1651.82V416.648H1653.58V418.496H1653.67C1654.22 417.22 1655.18 416.384 1656.88 416.384C1659.21 416.384 1660.68 417.968 1660.68 420.718V428H1658.92V421.026C1658.92 419.002 1658.04 417.968 1656.35 417.968C1654.94 417.968 1653.58 418.672 1653.58 420.124V428ZM1675.07 428.264C1671.88 428.264 1670.01 425.954 1670.01 422.324C1670.01 418.694 1671.88 416.384 1675.07 416.384C1677.31 416.384 1678.65 417.484 1679.31 419.046L1677.84 419.794C1677.42 418.628 1676.45 417.946 1675.07 417.946C1672.98 417.946 1671.9 419.376 1671.9 421.356V423.292C1671.9 425.272 1672.98 426.702 1675.07 426.702C1676.5 426.702 1677.53 426.02 1678.15 424.722L1679.42 425.58C1678.7 427.208 1677.22 428.264 1675.07 428.264ZM1686.73 428.264C1683.69 428.264 1681.6 425.932 1681.6 422.324C1681.6 418.716 1683.69 416.384 1686.73 416.384C1689.76 416.384 1691.85 418.716 1691.85 422.324C1691.85 425.932 1689.76 428.264 1686.73 428.264ZM1686.73 426.702C1688.62 426.702 1689.96 425.536 1689.96 423.138V421.51C1689.96 419.112 1688.62 417.946 1686.73 417.946C1684.83 417.946 1683.49 419.112 1683.49 421.51V423.138C1683.49 425.536 1684.83 426.702 1686.73 426.702ZM1697.17 428H1695.41V416.648H1697.17V418.496H1697.26C1697.76 417.33 1698.55 416.384 1700.31 416.384C1701.81 416.384 1703.17 417.066 1703.79 418.694H1703.83C1704.25 417.462 1705.35 416.384 1707.29 416.384C1709.6 416.384 1710.98 417.968 1710.98 420.718V428H1709.22V421.026C1709.22 419.024 1708.45 417.968 1706.74 417.968C1705.35 417.968 1704.08 418.672 1704.08 420.124V428H1702.32V421.026C1702.32 419.002 1701.55 417.968 1699.87 417.968C1698.49 417.968 1697.17 418.672 1697.17 420.124V428ZM1715.27 432.4V416.648H1717.03V418.496H1717.12C1717.72 417.066 1718.88 416.384 1720.44 416.384C1723.28 416.384 1725.06 418.694 1725.06 422.324C1725.06 425.954 1723.28 428.264 1720.44 428.264C1718.88 428.264 1717.8 427.56 1717.12 426.152H1717.03V432.4H1715.27ZM1719.96 426.68C1721.94 426.68 1723.17 425.316 1723.17 423.292V421.356C1723.17 419.332 1721.94 417.968 1719.96 417.968C1718.35 417.968 1717.03 418.892 1717.03 420.146V424.37C1717.03 425.844 1718.35 426.68 1719.96 426.68ZM1732.13 428H1730.57C1729.36 428 1728.7 427.23 1728.7 426.174V411.72H1730.46V426.46H1732.13V428ZM1739.62 428.264C1736.54 428.264 1734.51 425.932 1734.51 422.324C1734.51 418.716 1736.54 416.384 1739.62 416.384C1742.65 416.384 1744.52 418.716 1744.52 421.928V422.764H1736.36V423.292C1736.36 425.25 1737.62 426.724 1739.73 426.724C1741.16 426.724 1742.26 426.02 1742.85 424.766L1744.11 425.668C1743.38 427.208 1741.75 428.264 1739.62 428.264ZM1739.62 417.858C1737.7 417.858 1736.36 419.31 1736.36 421.29V421.444H1742.63V421.202C1742.63 419.2 1741.42 417.858 1739.62 417.858ZM1752.79 428H1750.59C1749.38 428 1748.72 427.23 1748.72 426.13V418.188H1746.85V416.648H1747.91C1748.66 416.648 1748.9 416.384 1748.9 415.614V413.502H1750.48V416.648H1752.97V418.188H1750.48V426.46H1752.79V428ZM1760.64 428.264C1757.56 428.264 1755.54 425.932 1755.54 422.324C1755.54 418.716 1757.56 416.384 1760.64 416.384C1763.68 416.384 1765.55 418.716 1765.55 421.928V422.764H1757.38V423.292C1757.38 425.25 1758.64 426.724 1760.75 426.724C1762.18 426.724 1763.28 426.02 1763.87 424.766L1765.13 425.668C1764.4 427.208 1762.77 428.264 1760.64 428.264ZM1760.64 417.858C1758.73 417.858 1757.38 419.31 1757.38 421.29V421.444H1763.65V421.202C1763.65 419.2 1762.44 417.858 1760.64 417.858Z" fill="white"/>
<rect x="127.5" y="489.5" width="235" height="77" rx="38.5" stroke="#161616"/>
<path d="M234.54 538H231.9L229.8 531.82H221.34L219.24 538H216.69L224.01 517.06H227.22L234.54 538ZM229.17 529.6L225.63 519.4H225.48L221.94 529.6H229.17ZM238.669 544V522.52H241.069V525.04H241.189C241.999 523.09 243.589 522.16 245.719 522.16C249.589 522.16 252.019 525.31 252.019 530.26C252.019 535.21 249.589 538.36 245.719 538.36C243.589 538.36 242.119 537.4 241.189 535.48H241.069V544H238.669ZM245.059 536.2C247.759 536.2 249.439 534.34 249.439 531.58V528.94C249.439 526.18 247.759 524.32 245.059 524.32C242.869 524.32 241.069 525.58 241.069 527.29V533.05C241.069 535.06 242.869 536.2 245.059 536.2ZM256.971 544V522.52H259.371V525.04H259.491C260.301 523.09 261.891 522.16 264.021 522.16C267.891 522.16 270.321 525.31 270.321 530.26C270.321 535.21 267.891 538.36 264.021 538.36C261.891 538.36 260.421 537.4 259.491 535.48H259.371V544H256.971ZM263.361 536.2C266.061 536.2 267.741 534.34 267.741 531.58V528.94C267.741 526.18 266.061 524.32 263.361 524.32C261.171 524.32 259.371 525.58 259.371 527.29V533.05C259.371 535.06 261.171 536.2 263.361 536.2Z" fill="#161616"/>
<rect x="285" y="550" width="130" height="54" rx="27" fill="#393939"/>
<path d="M313.418 586V567.852H319.502C324.026 567.852 326.938 570.868 326.938 576.926C326.938 582.984 324.026 586 319.502 586H313.418ZM315.602 584.076H319.502C322.492 584.076 324.598 581.996 324.598 578.408V575.444C324.598 571.856 322.492 569.776 319.502 569.776H315.602V584.076ZM333.513 586H331.433V572.584H333.513V575.054H333.643C334.111 573.78 335.333 572.584 337.517 572.584H338.323V574.664H337.101C334.865 574.664 333.513 575.626 333.513 576.9V586ZM342.8 569.438C341.916 569.438 341.526 568.97 341.526 568.268V567.93C341.526 567.228 341.916 566.76 342.8 566.76C343.684 566.76 344.074 567.228 344.074 567.93V568.268C344.074 568.97 343.684 569.438 342.8 569.438ZM341.76 586V572.584H343.84V586H341.76ZM354.422 586H352.004L347.298 572.584H349.378L351.718 579.24L353.174 583.816H353.304L354.76 579.24L357.152 572.584H359.154L354.422 586ZM367.458 586.312C363.818 586.312 361.426 583.556 361.426 579.292C361.426 575.028 363.818 572.272 367.458 572.272C371.046 572.272 373.256 575.028 373.256 578.824V579.812H363.61V580.436C363.61 582.75 365.092 584.492 367.588 584.492C369.278 584.492 370.578 583.66 371.28 582.178L372.762 583.244C371.904 585.064 369.98 586.312 367.458 586.312ZM367.458 574.014C365.196 574.014 363.61 575.73 363.61 578.07V578.252H371.02V577.966C371.02 575.6 369.59 574.014 367.458 574.014ZM379.544 586H377.464V572.584H379.544V575.054H379.674C380.142 573.78 381.364 572.584 383.548 572.584H384.354V574.664H383.132C380.896 574.664 379.544 575.626 379.544 576.9V586Z" fill="white"/>
<rect x="127.5" y="632.5" width="235" height="77" rx="38.5" stroke="#161616"/>
<path d="M234.54 681H231.9L229.8 674.82H221.34L219.24 681H216.69L224.01 660.06H227.22L234.54 681ZM229.17 672.6L225.63 662.4H225.48L221.94 672.6H229.17ZM238.669 687V665.52H241.069V668.04H241.189C241.999 666.09 243.589 665.16 245.719 665.16C249.589 665.16 252.019 668.31 252.019 673.26C252.019 678.21 249.589 681.36 245.719 681.36C243.589 681.36 242.119 680.4 241.189 678.48H241.069V687H238.669ZM245.059 679.2C247.759 679.2 249.439 677.34 249.439 674.58V671.94C249.439 669.18 247.759 667.32 245.059 667.32C242.869 667.32 241.069 668.58 241.069 670.29V676.05C241.069 678.06 242.869 679.2 245.059 679.2ZM256.971 687V665.52H259.371V668.04H259.491C260.301 666.09 261.891 665.16 264.021 665.16C267.891 665.16 270.321 668.31 270.321 673.26C270.321 678.21 267.891 681.36 264.021 681.36C261.891 681.36 260.421 680.4 259.491 678.48H259.371V687H256.971ZM263.361 679.2C266.061 679.2 267.741 677.34 267.741 674.58V671.94C267.741 669.18 266.061 667.32 263.361 667.32C261.171 667.32 259.371 668.58 259.371 670.29V676.05C259.371 678.06 261.171 679.2 263.361 679.2Z" fill="#161616"/>
<rect x="285" y="690" width="130" height="54" rx="27" fill="#393939"/>
<path d="M313.418 726V707.852H319.502C324.026 707.852 326.938 710.868 326.938 716.926C326.938 722.984 324.026 726 319.502 726H313.418ZM315.602 724.076H319.502C322.492 724.076 324.598 721.996 324.598 718.408V715.444C324.598 711.856 322.492 709.776 319.502 709.776H315.602V724.076ZM333.513 726H331.433V712.584H333.513V715.054H333.643C334.111 713.78 335.333 712.584 337.517 712.584H338.323V714.664H337.101C334.865 714.664 333.513 715.626 333.513 716.9V726ZM342.8 709.438C341.916 709.438 341.526 708.97 341.526 708.268V707.93C341.526 707.228 341.916 706.76 342.8 706.76C343.684 706.76 344.074 707.228 344.074 707.93V708.268C344.074 708.97 343.684 709.438 342.8 709.438ZM341.76 726V712.584H343.84V726H341.76ZM354.422 726H352.004L347.298 712.584H349.378L351.718 719.24L353.174 723.816H353.304L354.76 719.24L357.152 712.584H359.154L354.422 726ZM367.458 726.312C363.818 726.312 361.426 723.556 361.426 719.292C361.426 715.028 363.818 712.272 367.458 712.272C371.046 712.272 373.256 715.028 373.256 718.824V719.812H363.61V720.436C363.61 722.75 365.092 724.492 367.588 724.492C369.278 724.492 370.578 723.66 371.28 722.178L372.762 723.244C371.904 725.064 369.98 726.312 367.458 726.312ZM367.458 714.014C365.196 714.014 363.61 715.73 363.61 718.07V718.252H371.02V717.966C371.02 715.6 369.59 714.014 367.458 714.014ZM379.544 726H377.464V712.584H379.544V715.054H379.674C380.142 713.78 381.364 712.584 383.548 712.584H384.354V714.664H383.132C380.896 714.664 379.544 715.626 379.544 716.9V726Z" fill="white"/>
</g>
<defs>
<clipPath id="clip0_3514_10458">
<rect width="1920" height="952" fill="white"/>
</clipPath>
</defs>
</svg>
